{"glyphs":{"0":{"ha":779,"x_min":0,"x_max":0,"o":"m 724 444 b 351 -19 724 229 600 -19 b 56 372 161 -19 56 172 b 428 836 56 588 179 836 b 724 444 619 836 724 644 m 356 774 b 229 524 247 774 229 624 b 425 43 229 264 310 43 b 553 293 521 43 553 207 b 356 774 553 553 471 774 "},"1":{"ha":531,"x_min":0,"x_max":0,"o":"m 49 536 l 351 843 l 351 92 l 482 0 l 61 0 l 185 92 l 185 583 l 50 533 "},"2":{"ha":733,"x_min":0,"x_max":0,"o":"m 49 46 b 429 636 165 138 429 385 b 276 789 429 725 372 789 b 74 586 178 789 122 711 l 67 586 l 67 826 l 256 826 b 618 611 442 826 618 758 b 221 161 618 415 340 300 l 224 154 l 310 161 l 592 165 l 672 333 l 678 333 l 649 0 l 60 0 "},"3":{"ha":697,"x_min":0,"x_max":0,"o":"m 49 13 b 415 211 189 13 415 64 b 181 404 415 333 310 379 b 138 394 167 401 153 397 l 135 418 l 181 435 b 433 640 271 467 433 521 b 264 788 433 729 367 788 b 75 590 161 788 115 690 l 68 590 l 68 826 l 282 826 b 622 660 465 826 622 785 b 300 443 622 567 521 503 b 635 258 449 431 635 392 b 60 -22 635 58 208 -22 "},"4":{"ha":789,"x_min":0,"x_max":0,"o":"m 733 268 l 733 206 l 556 206 l 556 92 l 686 0 l 265 0 l 388 92 l 388 207 l 49 207 l 383 826 l 586 826 l 192 269 l 386 269 l 386 381 l 556 628 l 556 268 "},"5":{"ha":668,"x_min":0,"x_max":0,"o":"m 192 521 b 331 551 240 542 288 551 b 606 296 464 551 606 454 b 222 1 606 99 456 1 l 56 1 b 61 240 56 1 60 147 l 71 240 b 300 40 71 240 156 40 b 436 240 386 40 436 79 b 281 496 436 346 422 496 b 131 444 243 496 188 475 l 125 444 l 118 407 l 69 407 l 128 814 l 129 828 l 524 828 l 606 899 l 590 828 l 554 661 l 165 661 l 138 492 "},"6":{"ha":706,"x_min":0,"x_max":0,"o":"m 607 811 b 246 443 428 731 296 624 b 397 501 286 469 346 501 b 643 256 529 501 643 415 b 332 -17 643 131 528 -17 b 56 240 176 -17 56 88 b 599 838 56 524 301 722 m 238 408 b 224 267 228 365 224 318 b 360 25 224 114 269 25 b 479 226 451 25 479 163 b 329 444 479 369 396 444 b 238 408 289 444 268 436 "},"7":{"ha":671,"x_min":0,"x_max":0,"o":"m 49 558 l 49 826 l 643 826 l 165 -56 l 118 -33 l 476 660 l 122 660 l 53 558 "},"8":{"ha":688,"x_min":0,"x_max":0,"o":"m 364 847 b 582 681 460 847 582 797 b 451 496 582 592 521 539 b 635 240 543 435 635 374 b 313 -21 635 44 426 -21 b 50 182 163 -21 50 61 b 221 408 50 311 151 365 b 83 629 150 469 83 517 b 364 847 83 783 235 847 m 419 511 b 508 664 482 551 508 600 b 351 813 508 772 439 813 b 207 676 279 813 207 769 b 419 511 207 592 317 560 m 260 390 b 124 188 196 354 124 282 b 314 14 124 101 178 14 b 500 174 419 14 500 67 b 260 390 500 311 376 342 "},"9":{"ha":699,"x_min":0,"x_max":0,"o":"m 92 14 b 453 382 271 93 403 200 b 301 324 408 349 353 324 b 56 569 169 324 56 410 b 367 842 56 694 171 842 b 643 597 522 842 643 750 b 100 -14 643 314 396 103 b 92 14 100 -14 94 3 m 461 415 b 475 557 469 458 475 506 b 339 800 475 711 429 800 b 219 597 247 800 219 661 b 369 381 219 456 303 381 b 461 415 410 381 431 388 "},"A":{"ha":1010,"x_min":0,"x_max":0,"o":"m 703 96 l 618 297 l 257 297 l 182 108 l 314 0 l 7 0 l 106 110 l 458 965 l 524 965 l 899 93 l 1003 0 l 575 0 m 282 360 l 593 360 l 435 740 "},"Á":{"ha":1014,"x_min":0,"x_max":0,"o":"m 481 1028 l 499 1207 l 681 1207 l 501 1028 m 192 108 l 324 0 l 17 0 l 115 110 l 468 965 l 533 965 l 908 93 l 1013 0 l 585 0 l 713 96 l 628 297 l 267 297 m 444 740 l 289 353 l 606 353 "},"Â":{"ha":1014,"x_min":0,"x_max":0,"o":"m 444 1207 l 560 1207 l 647 1028 l 626 1028 l 503 1125 l 379 1028 l 358 1028 m 192 108 l 324 0 l 17 0 l 115 110 l 468 965 l 533 965 l 908 93 l 1013 0 l 585 0 l 713 96 l 628 297 l 267 297 m 444 740 l 289 353 l 606 353 "},"Ä":{"ha":1014,"x_min":0,"x_max":0,"o":"m 328 1274 l 435 1153 l 328 1031 l 221 1153 m 653 1274 l 758 1153 l 653 1031 l 544 1153 m 192 108 l 324 0 l 17 0 l 115 110 l 468 965 l 533 965 l 908 93 l 1013 0 l 585 0 l 713 96 l 628 297 l 267 297 m 444 740 l 289 353 l 606 353 "},"À":{"ha":1014,"x_min":0,"x_max":0,"o":"m 311 1207 l 493 1207 l 511 1028 l 490 1028 m 192 108 l 324 0 l 17 0 l 115 110 l 468 965 l 533 965 l 908 93 l 1013 0 l 585 0 l 713 96 l 628 297 l 267 297 m 444 740 l 289 353 l 606 353 "},"Å":{"ha":1014,"x_min":0,"x_max":0,"o":"m 364 1151 b 500 1288 364 1226 425 1288 b 636 1151 575 1288 636 1226 b 500 1015 636 1076 575 1015 b 364 1151 425 1015 364 1076 m 411 1151 b 500 1063 411 1103 451 1063 b 589 1151 549 1063 589 1103 b 500 1240 589 1200 549 1240 b 411 1151 451 1240 411 1200 m 192 108 l 324 0 l 17 0 l 115 110 l 468 965 l 533 965 l 908 93 l 1013 0 l 585 0 l 713 96 l 628 297 l 267 297 m 444 740 l 289 353 l 606 353 "},"Ã":{"ha":1010,"x_min":0,"x_max":0,"o":"m 599 1065 b 385 1081 531 1071 453 1081 b 329 1021 367 1081 347 1051 l 310 1033 l 397 1182 b 599 1167 461 1176 535 1167 b 660 1214 619 1167 639 1188 l 681 1206 m 703 96 l 618 297 l 257 297 l 182 108 l 314 0 l 7 0 l 106 110 l 458 965 l 524 965 l 899 93 l 1003 0 l 575 0 m 282 360 l 593 360 l 435 740 "},"Æ":{"ha":1264,"x_min":0,"x_max":0,"o":"m 518 0 l 601 147 l 601 297 l 288 297 l 175 106 l 290 0 l 0 0 l 104 118 l 551 868 l 444 953 l 719 953 l 718 951 l 1188 951 l 1188 660 l 1179 660 l 1010 901 l 782 901 l 782 517 l 1161 517 l 1161 461 l 782 461 l 782 50 l 1022 50 l 1222 304 l 1229 301 l 1214 0 m 596 835 l 578 799 l 319 353 l 601 353 l 601 831 "},"B":{"ha":875,"x_min":0,"x_max":0,"o":"m 374 951 b 765 742 607 951 765 907 b 546 517 765 617 649 556 b 826 254 719 478 826 396 b 361 0 826 54 558 0 l 56 0 l 139 147 l 139 807 l 56 951 m 319 525 b 586 714 497 525 586 606 b 367 907 586 881 463 907 l 319 907 m 363 54 b 622 258 504 54 622 125 b 319 490 622 442 497 490 l 319 54 "},"C":{"ha":904,"x_min":0,"x_max":0,"o":"m 767 669 b 482 894 721 786 626 894 b 250 564 319 894 250 747 b 539 146 250 329 344 146 b 835 307 707 146 790 236 l 856 293 b 454 -17 794 149 667 -17 b 49 443 204 -17 49 171 b 568 951 49 690 233 951 l 785 951 l 785 669 "},"Ć":{"ha":904,"x_min":0,"x_max":0,"o":"m 453 1028 l 471 1207 l 653 1207 l 474 1028 m 767 669 b 482 894 721 786 626 894 b 250 564 319 894 250 747 b 539 146 250 329 344 146 b 835 307 707 146 790 236 l 856 293 b 454 -17 794 149 667 -17 b 49 443 204 -17 49 171 b 568 951 49 690 233 951 l 785 951 l 785 669 "},"Č":{"ha":904,"x_min":0,"x_max":0,"o":"m 625 1207 l 646 1207 l 558 1028 l 443 1028 l 357 1207 l 378 1207 l 501 1110 m 767 669 b 482 894 721 786 626 894 b 250 564 319 894 250 747 b 539 146 250 329 344 146 b 835 307 707 146 790 236 l 856 293 b 454 -17 794 149 667 -17 b 49 443 204 -17 49 171 b 568 951 49 690 233 951 l 785 951 l 785 669 "},"Ç":{"ha":904,"x_min":0,"x_max":0,"o":"m 767 669 b 482 894 721 786 626 894 b 250 564 319 894 250 747 b 539 146 250 329 344 146 b 835 307 707 146 790 236 l 856 293 b 454 -17 794 149 667 -17 b 49 443 204 -17 49 171 b 568 951 49 690 233 951 l 785 951 l 785 669 m 457 -47 b 582 -133 497 -62 582 -87 b 446 -237 582 -201 515 -237 b 332 -190 399 -237 368 -222 l 347 -165 b 449 -204 375 -192 408 -204 b 519 -172 486 -204 519 -192 b 368 -110 519 -128 424 -124 l 368 -106 l 431 -17 l 474 -17 "},"Ĉ":{"ha":904,"x_min":0,"x_max":0,"o":"m 453 1207 l 568 1207 l 656 1028 l 635 1028 l 511 1125 l 388 1028 l 367 1028 m 767 669 b 482 894 721 786 626 894 b 250 564 319 894 250 747 b 539 146 250 329 344 146 b 835 307 707 146 790 236 l 856 293 b 454 -17 794 149 667 -17 b 49 443 204 -17 49 171 b 568 951 49 690 233 951 l 785 951 l 785 669 "},"D":{"ha":1021,"x_min":0,"x_max":0,"o":"m 425 951 b 972 517 844 951 972 714 b 401 0 972 196 743 0 l 56 0 l 158 147 l 158 804 l 56 951 m 426 53 b 781 478 721 53 781 308 b 436 907 781 756 656 907 l 339 907 l 339 53 "},"Ð":{"ha":983,"x_min":0,"x_max":0,"o":"m 404 951 b 935 531 824 951 935 728 b 381 0 935 194 722 0 l 35 0 l 138 147 l 138 456 l 35 456 l 35 525 l 138 525 l 138 804 l 35 951 m 406 53 b 740 478 700 53 740 308 b 415 907 740 756 635 907 l 318 907 l 318 525 l 521 525 l 521 456 l 318 456 l 318 53 "},"Ď":{"ha":1021,"x_min":0,"x_max":0,"o":"m 607 1207 l 628 1207 l 540 1028 l 425 1028 l 339 1207 l 360 1207 l 483 1110 m 425 951 b 972 517 844 951 972 714 b 401 0 972 196 743 0 l 56 0 l 158 147 l 158 804 l 56 951 m 426 53 b 781 478 721 53 781 308 b 436 907 781 756 656 907 l 339 907 l 339 53 "},"E":{"ha":822,"x_min":0,"x_max":0,"o":"m 751 0 l 56 0 l 139 147 l 139 807 l 56 951 l 725 951 l 725 660 l 708 660 l 556 901 l 319 901 l 319 517 l 699 517 l 699 454 l 319 454 l 319 50 l 568 50 l 751 304 l 767 301 "},"É":{"ha":822,"x_min":0,"x_max":0,"o":"m 376 1207 l 558 1207 l 379 1028 l 358 1028 m 56 0 l 139 147 l 139 807 l 56 951 l 725 951 l 725 660 l 708 660 l 556 901 l 319 901 l 319 517 l 699 517 l 699 454 l 319 454 l 319 50 l 568 50 l 751 304 l 767 301 l 751 0 "},"Ě":{"ha":822,"x_min":0,"x_max":0,"o":"m 551 1207 l 572 1207 l 485 1028 l 369 1028 l 283 1207 l 304 1207 l 428 1110 m 56 0 l 139 147 l 139 807 l 56 951 l 725 951 l 725 660 l 708 660 l 556 901 l 319 901 l 319 517 l 699 517 l 699 454 l 319 454 l 319 50 l 568 50 l 751 304 l 767 301 l 751 0 "},"Ê":{"ha":822,"x_min":0,"x_max":0,"o":"m 363 1207 l 478 1207 l 565 1028 l 544 1028 l 421 1125 l 297 1028 l 276 1028 m 56 0 l 139 147 l 139 807 l 56 951 l 725 951 l 725 660 l 708 660 l 556 901 l 319 901 l 319 517 l 699 517 l 699 454 l 319 454 l 319 50 l 568 50 l 751 304 l 767 301 l 751 0 "},"Ë":{"ha":822,"x_min":0,"x_max":0,"o":"m 261 1272 l 367 1151 l 261 1029 l 153 1151 m 586 1272 l 692 1151 l 586 1029 l 478 1151 m 56 0 l 139 147 l 139 807 l 56 951 l 725 951 l 725 660 l 708 660 l 556 901 l 319 901 l 319 517 l 699 517 l 699 454 l 319 454 l 319 50 l 568 50 l 751 304 l 767 301 l 751 0 "},"Ė":{"ha":822,"x_min":0,"x_max":0,"o":"m 419 1250 l 517 1139 l 419 1026 l 321 1139 m 56 0 l 139 147 l 139 807 l 56 951 l 725 951 l 725 660 l 708 660 l 556 901 l 319 901 l 319 517 l 699 517 l 699 454 l 319 454 l 319 50 l 568 50 l 751 304 l 767 301 l 751 0 "},"È":{"ha":822,"x_min":0,"x_max":0,"o":"m 275 1207 l 457 1207 l 475 1028 l 454 1028 m 56 0 l 139 147 l 139 807 l 56 951 l 725 951 l 725 660 l 708 660 l 556 901 l 319 901 l 319 517 l 699 517 l 699 454 l 319 454 l 319 50 l 568 50 l 751 304 l 767 301 l 751 0 "},"F":{"ha":781,"x_min":0,"x_max":0,"o":"m 139 147 l 139 807 l 56 951 l 725 951 l 725 668 l 711 668 l 556 901 l 319 901 l 319 513 l 688 513 l 688 449 l 319 449 l 319 147 l 468 0 l 56 0 l 56 8 "},"G":{"ha":954,"x_min":0,"x_max":0,"o":"m 921 415 l 847 364 l 847 -8 l 826 -8 l 694 65 b 454 -18 628 19 546 -18 b 49 442 204 -18 49 169 b 568 950 49 689 233 950 l 785 950 l 785 668 l 767 668 b 472 893 703 779 629 893 b 256 563 332 893 256 781 b 554 83 256 349 307 83 b 669 110 582 83 632 92 l 669 340 l 524 414 l 524 429 l 921 429 "},"H":{"ha":1083,"x_min":0,"x_max":0,"o":"m 1026 0 l 640 0 l 743 147 l 743 463 l 325 463 l 325 147 l 428 0 l 42 0 l 144 147 l 144 806 l 43 951 l 429 951 l 325 804 l 325 525 l 743 525 l 743 806 l 642 951 l 1028 951 l 924 804 l 924 147 "},"I":{"ha":497,"x_min":0,"x_max":0,"o":"m 56 0 l 158 147 l 158 804 l 56 951 l 442 951 l 339 804 l 339 147 l 442 0 "},"Ĳ":{"ha":960,"x_min":0,"x_max":0,"o":"m 56 0 l 158 147 l 158 804 l 56 951 l 442 951 l 339 804 l 339 147 l 442 0 m 801 804 l 801 6 b 600 -244 801 -101 678 -197 l 590 -239 b 621 -101 607 -204 621 -147 l 621 804 l 518 951 l 904 951 "},"Í":{"ha":497,"x_min":0,"x_max":0,"o":"m 196 1028 l 214 1207 l 396 1207 l 217 1028 m 56 0 l 158 147 l 158 804 l 56 951 l 442 951 l 339 804 l 339 147 l 442 0 "},"Î":{"ha":497,"x_min":0,"x_max":0,"o":"m 194 1207 l 310 1207 l 397 1028 l 376 1028 l 253 1125 l 129 1028 l 108 1028 m 56 0 l 158 147 l 158 804 l 56 951 l 442 951 l 339 804 l 339 147 l 442 0 "},"Ï":{"ha":619,"x_min":0,"x_max":0,"o":"m 147 1274 l 256 1153 l 147 1031 l 42 1153 m 472 1274 l 578 1153 l 472 1031 l 364 1153 m 117 0 l 219 147 l 219 804 l 117 951 l 503 951 l 400 804 l 400 147 l 503 0 "},"Ì":{"ha":497,"x_min":0,"x_max":0,"o":"m 103 1207 l 285 1207 l 303 1028 l 282 1028 m 56 0 l 158 147 l 158 804 l 56 951 l 442 951 l 339 804 l 339 147 l 442 0 "},"J":{"ha":469,"x_min":0,"x_max":0,"o":"m 325 804 l 325 6 b 124 -244 325 -101 201 -197 l 114 -239 b 144 -101 131 -204 144 -147 l 144 804 l 42 951 l 428 951 "},"K":{"ha":1068,"x_min":0,"x_max":0,"o":"m 658 88 l 397 450 l 339 392 l 339 147 l 442 0 l 56 0 l 158 147 l 158 806 l 56 953 l 442 953 l 339 806 l 339 479 l 544 688 l 697 849 l 653 953 l 975 953 l 774 828 l 531 585 l 888 106 l 1051 0 l 594 0 "},"L":{"ha":847,"x_min":0,"x_max":0,"o":"m 790 0 l 56 0 l 139 147 l 139 807 l 56 951 l 425 951 l 319 806 l 319 63 l 608 63 l 792 300 l 806 300 "},"Ĺ":{"ha":847,"x_min":0,"x_max":0,"o":"m 206 1028 l 224 1207 l 406 1207 l 226 1028 m 790 0 l 56 0 l 139 147 l 139 807 l 56 951 l 425 951 l 319 806 l 319 63 l 608 63 l 792 300 l 806 300 "},"Ľ":{"ha":853,"x_min":0,"x_max":0,"o":"m 554 610 b 644 754 601 649 644 701 b 604 826 644 790 622 807 l 550 869 l 665 988 b 778 853 711 960 778 900 b 574 596 778 717 604 615 m 790 0 l 56 0 l 139 147 l 139 807 l 56 951 l 425 951 l 319 806 l 319 63 l 608 63 l 792 300 l 806 300 "},"Ŀ":{"ha":853,"x_min":0,"x_max":0,"o":"m 790 0 l 56 0 l 139 147 l 139 807 l 56 951 l 425 951 l 319 806 l 319 63 l 608 63 l 792 300 l 806 300 m 515 526 l 635 656 l 753 526 l 635 399 "},"Ł":{"ha":867,"x_min":0,"x_max":0,"o":"m 68 0 l 151 147 l 151 401 l 14 361 l 14 447 l 151 488 l 151 807 l 68 951 l 438 951 l 332 806 l 332 540 l 514 594 l 514 506 l 332 453 l 332 50 l 611 50 l 804 299 l 818 299 l 803 0 "},"M":{"ha":1272,"x_min":0,"x_max":0,"o":"m 325 0 l 40 0 l 147 133 l 147 807 l 28 951 l 303 951 l 633 257 l 932 951 l 1222 951 l 1119 838 l 1119 146 l 1224 0 l 822 0 l 939 144 l 939 815 l 579 -17 l 569 -17 l 213 706 l 213 133 "},"N":{"ha":1050,"x_min":0,"x_max":0,"o":"m 958 0 l 743 0 l 233 679 l 233 119 l 351 0 l 65 0 l 168 129 l 168 775 l 33 951 l 263 951 l 832 158 l 832 832 l 713 951 l 1001 951 l 899 822 l 899 81 "},"Ń":{"ha":1050,"x_min":0,"x_max":0,"o":"m 481 1028 l 499 1207 l 681 1207 l 501 1028 m 228 119 l 347 0 l 50 0 l 153 129 l 153 775 l 18 951 l 247 951 l 824 181 l 824 832 l 704 951 l 1001 951 l 899 822 l 899 81 l 958 0 l 743 0 l 228 676 "},"Ň":{"ha":1050,"x_min":0,"x_max":0,"o":"m 651 1207 l 672 1207 l 585 1028 l 469 1028 l 383 1207 l 404 1207 l 528 1110 m 228 119 l 347 0 l 50 0 l 153 129 l 153 775 l 18 951 l 247 951 l 824 181 l 824 832 l 704 951 l 1001 951 l 899 822 l 899 81 l 958 0 l 743 0 l 228 676 "},"Ñ":{"ha":1050,"x_min":0,"x_max":0,"o":"m 628 1021 b 414 1036 560 1026 482 1036 b 358 976 396 1036 376 1007 l 339 989 l 426 1138 b 628 1122 490 1132 564 1122 b 689 1169 649 1122 668 1143 l 710 1161 m 958 0 l 743 0 l 233 679 l 233 119 l 351 0 l 65 0 l 168 129 l 168 775 l 33 951 l 263 951 l 832 158 l 832 832 l 713 951 l 1001 951 l 899 822 l 899 81 "},"O":{"ha":1025,"x_min":0,"x_max":0,"o":"m 976 518 b 460 -17 976 239 799 -17 b 49 435 204 -17 49 208 b 565 969 49 714 226 969 b 976 518 821 969 976 744 m 467 910 b 246 603 279 910 246 713 b 558 42 246 317 361 42 b 782 350 725 42 782 240 b 467 910 782 636 664 910 "},"Ó":{"ha":1025,"x_min":0,"x_max":0,"o":"m 460 1028 l 478 1207 l 660 1207 l 481 1028 m 976 518 b 460 -17 976 239 799 -17 b 49 435 204 -17 49 208 b 565 969 49 714 226 969 b 976 518 821 969 976 744 m 467 910 b 246 603 279 910 246 713 b 558 42 246 317 361 42 b 782 350 725 42 782 240 b 467 910 782 636 664 910 "},"Ô":{"ha":1025,"x_min":0,"x_max":0,"o":"m 451 1207 l 567 1207 l 654 1028 l 633 1028 l 510 1125 l 386 1028 l 365 1028 m 976 518 b 460 -17 976 239 799 -17 b 49 435 204 -17 49 208 b 565 969 49 714 226 969 b 976 518 821 969 976 744 m 467 910 b 246 603 279 910 246 713 b 558 42 246 317 361 42 b 782 350 725 42 782 240 b 467 910 782 636 664 910 "},"Ö":{"ha":1025,"x_min":0,"x_max":0,"o":"m 346 1271 l 451 1150 l 346 1028 l 238 1150 m 671 1271 l 776 1150 l 671 1028 l 563 1150 m 976 518 b 460 -17 976 239 799 -17 b 49 435 204 -17 49 208 b 565 969 49 714 226 969 b 976 518 821 969 976 744 m 467 910 b 246 603 279 910 246 713 b 558 42 246 317 361 42 b 782 350 725 42 782 240 b 467 910 782 636 664 910 "},"Ò":{"ha":1025,"x_min":0,"x_max":0,"o":"m 289 1207 l 471 1207 l 489 1028 l 468 1028 m 976 518 b 460 -17 976 239 799 -17 b 49 435 204 -17 49 208 b 565 969 49 714 226 969 b 976 518 821 969 976 744 m 467 910 b 246 603 279 910 246 713 b 558 42 246 317 361 42 b 782 350 725 42 782 240 b 467 910 782 636 664 910 "},"Ø":{"ha":1044,"x_min":0,"x_max":0,"o":"m 883 825 b 990 518 953 742 990 629 b 474 -17 990 239 813 -17 b 214 81 369 -17 281 21 l 135 -7 l 42 -7 l 167 132 b 63 435 99 215 63 325 b 579 969 63 714 240 969 b 835 875 682 969 768 933 l 910 958 l 1003 958 m 711 738 b 481 910 657 842 579 910 b 260 603 293 910 260 713 b 310 290 260 492 276 383 m 339 221 b 572 42 393 113 472 42 b 796 350 739 42 796 240 b 742 668 796 464 778 575 "},"Õ":{"ha":1025,"x_min":0,"x_max":0,"o":"m 396 1175 b 597 1160 460 1169 533 1160 b 658 1207 618 1160 638 1181 l 679 1199 l 597 1058 b 383 1074 529 1064 451 1074 b 328 1014 365 1074 346 1044 l 308 1026 m 976 518 b 460 -17 976 239 799 -17 b 49 435 204 -17 49 208 b 565 969 49 714 226 969 b 976 518 821 969 976 744 m 467 910 b 246 603 279 910 246 713 b 558 42 246 317 361 42 b 782 350 725 42 782 240 b 467 910 782 636 664 910 "},"Œ":{"ha":1381,"x_min":0,"x_max":0,"o":"m 1257 461 l 878 461 l 878 50 l 1126 50 l 1310 296 l 1325 293 l 1310 0 l 460 0 b 49 435 204 0 49 208 b 565 951 49 714 226 951 l 1283 951 l 1283 668 l 1267 668 l 1114 901 l 878 901 l 878 517 l 1257 517 m 525 900 b 246 550 289 900 246 654 b 558 50 246 278 361 50 l 696 50 l 696 900 "},"P":{"ha":817,"x_min":0,"x_max":0,"o":"m 158 147 l 158 804 l 56 951 l 389 951 b 775 697 524 951 775 928 b 467 413 775 526 613 431 b 339 403 422 406 371 403 l 339 147 l 464 0 l 56 0 m 339 450 b 578 681 490 450 578 525 b 339 910 578 836 488 910 "},"Þ":{"ha":840,"x_min":0,"x_max":0,"o":"m 389 775 b 775 521 488 775 775 751 b 467 236 775 350 613 254 b 339 226 422 229 371 226 l 339 147 l 464 0 l 56 0 l 158 147 l 158 804 l 56 951 l 442 951 l 339 804 l 339 775 m 339 274 b 578 504 490 274 578 349 b 339 733 578 660 488 733 "},"Q":{"ha":1025,"x_min":0,"x_max":0,"o":"m 808 -174 b 515 -7 708 -137 611 -78 b 460 -10 497 -8 479 -10 b 49 435 204 -10 49 208 b 565 963 49 714 226 963 b 976 518 821 963 976 744 b 761 75 976 339 903 172 l 814 -165 m 467 903 b 246 603 279 903 246 713 b 558 49 246 317 361 49 b 782 350 725 49 782 240 b 467 903 782 636 664 903 "},"R":{"ha":967,"x_min":0,"x_max":0,"o":"m 672 0 b 406 433 578 161 485 324 l 339 428 l 339 147 l 442 0 l 56 0 l 158 147 l 158 804 l 56 951 l 407 951 b 806 706 532 951 806 936 b 590 471 806 592 703 513 l 806 136 l 953 0 m 339 474 b 601 689 472 476 601 547 b 339 910 601 856 488 910 "},"Ŕ":{"ha":967,"x_min":0,"x_max":0,"o":"m 397 1028 l 415 1207 l 597 1207 l 418 1028 m 672 0 b 406 433 578 161 485 324 l 339 428 l 339 147 l 442 0 l 56 0 l 158 147 l 158 804 l 56 951 l 407 951 b 806 706 532 951 806 936 b 590 471 806 592 703 513 l 806 136 l 953 0 m 339 474 b 601 689 472 476 601 547 b 339 910 601 856 488 910 "},"Ř":{"ha":967,"x_min":0,"x_max":0,"o":"m 554 1207 l 575 1207 l 488 1028 l 372 1028 l 286 1207 l 307 1207 l 431 1110 m 672 0 b 406 433 578 161 485 324 l 339 428 l 339 147 l 442 0 l 56 0 l 158 147 l 158 804 l 56 951 l 407 951 b 806 706 532 951 806 936 b 590 471 806 592 703 513 l 806 136 l 953 0 m 339 474 b 601 689 472 476 601 547 b 339 910 601 856 488 910 "},"S":{"ha":740,"x_min":0,"x_max":0,"o":"m 65 372 b 388 42 111 192 239 42 b 532 181 450 42 532 79 b 53 694 532 444 53 372 b 354 951 53 826 149 951 l 553 951 l 619 972 l 619 672 l 603 674 b 321 907 557 821 447 907 b 189 781 244 907 189 861 b 685 283 189 549 685 578 b 342 -11 685 76 525 -11 b 65 39 251 -11 133 8 l 49 372 "},"Ś":{"ha":740,"x_min":0,"x_max":0,"o":"m 331 1028 l 349 1207 l 531 1207 l 351 1028 m 65 372 b 388 42 111 192 239 42 b 532 181 467 42 532 97 b 53 694 532 444 53 372 b 354 951 53 826 149 951 l 553 951 l 619 972 l 619 672 l 603 674 b 321 907 557 821 447 907 b 189 781 244 907 189 861 b 685 283 189 549 685 578 b 342 -11 685 76 525 -11 b 65 39 251 -11 133 8 l 49 372 "},"Š":{"ha":740,"x_min":0,"x_max":0,"o":"m 511 1207 l 532 1207 l 444 1028 l 329 1028 l 243 1207 l 264 1207 l 388 1110 m 65 372 b 388 42 111 192 239 42 b 532 181 467 42 532 97 b 53 694 532 444 53 372 b 354 951 53 826 149 951 l 553 951 l 619 972 l 619 672 l 603 674 b 321 907 557 821 447 907 b 189 781 244 907 189 861 b 685 283 189 549 685 578 b 342 -11 685 76 525 -11 b 65 39 251 -11 133 8 l 49 372 "},"T":{"ha":917,"x_min":0,"x_max":0,"o":"m 26 951 l 864 951 l 864 647 l 853 646 l 674 903 l 535 903 l 535 147 l 638 0 l 251 0 l 354 147 l 354 901 l 215 901 l 38 646 l 26 647 "},"Ť":{"ha":917,"x_min":0,"x_max":0,"o":"m 560 1207 l 581 1207 l 493 1028 l 378 1028 l 292 1207 l 313 1207 l 436 1110 m 26 951 l 864 951 l 864 647 l 853 646 l 674 903 l 535 903 l 535 147 l 638 0 l 251 0 l 354 147 l 354 901 l 215 901 l 38 646 l 26 647 "},"U":{"ha":1085,"x_min":0,"x_max":0,"o":"m 908 822 l 908 385 b 851 133 908 258 890 206 b 551 -21 801 42 694 -21 b 157 307 467 -21 157 -21 l 157 806 l 56 951 l 442 951 l 339 804 l 339 328 b 603 46 339 71 468 46 b 842 418 714 46 842 107 l 842 826 l 724 951 l 1036 951 l 910 826 "},"Ú":{"ha":1060,"x_min":0,"x_max":0,"o":"m 532 1028 l 550 1207 l 732 1207 l 553 1028 m 339 328 b 603 46 339 71 468 46 b 842 418 714 46 842 107 l 842 826 l 735 951 l 1011 951 l 908 826 l 908 385 b 851 133 908 258 890 206 b 551 -21 801 42 694 -21 b 157 307 467 -21 157 -21 l 157 806 l 56 951 l 442 951 l 339 804 "},"Û":{"ha":1060,"x_min":0,"x_max":0,"o":"m 515 1207 l 631 1207 l 718 1028 l 697 1028 l 574 1125 l 450 1028 l 429 1028 m 339 328 b 603 46 339 71 468 46 b 842 418 714 46 842 107 l 842 826 l 735 951 l 1011 951 l 908 826 l 908 385 b 851 133 908 258 890 206 b 551 -21 801 42 694 -21 b 157 307 467 -21 157 -21 l 157 806 l 56 951 l 442 951 l 339 804 "},"Ü":{"ha":1060,"x_min":0,"x_max":0,"o":"m 421 1276 l 533 1150 l 421 1022 l 308 1150 m 763 1276 l 874 1150 l 763 1022 l 649 1150 m 339 328 b 603 46 339 71 468 46 b 842 418 714 46 842 107 l 842 826 l 735 951 l 1011 951 l 908 826 l 908 385 b 851 133 908 258 890 206 b 551 -21 801 42 694 -21 b 157 307 467 -21 157 -21 l 157 806 l 56 951 l 442 951 l 339 804 "},"Ù":{"ha":1060,"x_min":0,"x_max":0,"o":"m 429 1207 l 611 1207 l 629 1028 l 608 1028 m 339 328 b 603 46 339 71 468 46 b 842 418 714 46 842 107 l 842 826 l 735 951 l 1011 951 l 908 826 l 908 385 b 851 133 908 258 890 206 b 551 -21 801 42 694 -21 b 157 307 467 -21 157 -21 l 157 806 l 56 951 l 442 951 l 339 804 "},"Ů":{"ha":1060,"x_min":0,"x_max":0,"o":"m 438 1122 b 574 1258 438 1197 499 1258 b 710 1122 649 1258 710 1197 b 574 986 710 1047 649 986 b 438 1122 499 986 438 1047 m 485 1122 b 574 1033 485 1074 525 1033 b 663 1122 622 1033 663 1074 b 574 1211 663 1171 622 1211 b 485 1122 525 1211 485 1171 m 339 328 b 603 46 339 71 468 46 b 842 418 714 46 842 107 l 842 826 l 735 951 l 1011 951 l 908 826 l 908 385 b 851 133 908 258 890 206 b 551 -21 801 42 694 -21 b 157 307 467 -21 157 -21 l 157 806 l 56 951 l 442 951 l 339 804 "},"V":{"ha":946,"x_min":0,"x_max":0,"o":"m 767 832 l 649 951 l 939 951 l 842 828 l 510 -28 l 443 -28 l 76 869 l 4 951 l 383 951 l 272 867 l 514 257 l 532 192 "},"W":{"ha":1396,"x_min":0,"x_max":0,"o":"m 1224 831 l 1104 951 l 1394 951 l 1300 832 l 1003 -17 l 918 -17 l 717 524 l 519 -17 l 435 -17 l 90 869 l 18 951 l 397 951 l 286 867 l 514 257 l 528 206 l 686 606 l 586 872 l 517 951 l 896 951 l 783 867 l 999 257 l 1015 196 "},"Ẃ":{"ha":1396,"x_min":0,"x_max":0,"o":"m 686 1028 l 704 1207 l 886 1207 l 707 1028 m 1224 831 l 1104 951 l 1394 951 l 1300 832 l 1003 -17 l 918 -17 l 717 524 l 519 -17 l 435 -17 l 90 869 l 18 951 l 397 951 l 286 867 l 514 257 l 528 206 l 686 606 l 586 872 l 517 951 l 896 951 l 783 867 l 999 257 l 1015 196 "},"Ŵ":{"ha":1396,"x_min":0,"x_max":0,"o":"m 653 1207 l 768 1207 l 856 1028 l 835 1028 l 711 1125 l 588 1028 l 567 1028 m 1224 831 l 1104 951 l 1394 951 l 1300 832 l 1003 -17 l 918 -17 l 717 524 l 519 -17 l 435 -17 l 90 869 l 18 951 l 397 951 l 286 867 l 514 257 l 528 206 l 686 606 l 586 872 l 517 951 l 896 951 l 783 867 l 999 257 l 1015 196 "},"Ẅ":{"ha":1396,"x_min":0,"x_max":0,"o":"m 543 1272 l 649 1151 l 543 1029 l 435 1151 m 868 1272 l 974 1151 l 868 1029 l 760 1151 m 1224 831 l 1104 951 l 1394 951 l 1300 832 l 1003 -17 l 918 -17 l 717 524 l 519 -17 l 435 -17 l 90 869 l 18 951 l 397 951 l 286 867 l 514 257 l 528 206 l 686 606 l 586 872 l 517 951 l 896 951 l 783 867 l 999 257 l 1015 196 "},"Ẁ":{"ha":1396,"x_min":0,"x_max":0,"o":"m 532 1207 l 714 1207 l 732 1028 l 711 1028 m 1224 831 l 1104 951 l 1394 951 l 1300 832 l 1003 -17 l 918 -17 l 717 524 l 519 -17 l 435 -17 l 90 869 l 18 951 l 397 951 l 286 867 l 514 257 l 528 206 l 686 606 l 586 872 l 517 951 l 896 951 l 783 867 l 999 257 l 1015 196 "},"X":{"ha":1003,"x_min":0,"x_max":0,"o":"m 454 408 l 254 131 l 365 0 l 6 0 l 151 144 l 406 474 l 163 804 l 19 951 l 458 951 l 347 817 l 533 574 l 706 811 l 604 951 l 965 951 l 801 808 l 581 515 l 854 147 l 1003 0 l 531 0 l 654 138 "},"Y":{"ha":957,"x_min":0,"x_max":0,"o":"m 671 0 l 285 0 l 388 147 l 388 390 l 140 804 l 14 951 l 460 951 l 342 804 l 340 804 l 504 542 l 526 496 l 708 807 l 590 951 l 943 951 l 800 821 l 568 442 l 568 147 "},"Ý":{"ha":957,"x_min":0,"x_max":0,"o":"m 504 1207 l 686 1207 l 507 1028 l 486 1028 m 271 0 l 388 140 l 388 390 l 140 804 l 14 951 l 460 951 l 342 804 l 340 804 l 504 542 l 526 496 l 708 807 l 590 951 l 943 951 l 800 821 l 568 442 l 568 140 l 685 0 "},"Ŷ":{"ha":957,"x_min":0,"x_max":0,"o":"m 464 1207 l 579 1207 l 667 1028 l 646 1028 l 522 1125 l 399 1028 l 378 1028 m 685 0 l 271 0 l 388 140 l 388 390 l 140 804 l 14 951 l 460 951 l 342 804 l 340 804 l 504 542 l 526 496 l 708 807 l 590 951 l 943 951 l 800 821 l 568 442 l 568 140 "},"Ÿ":{"ha":957,"x_min":0,"x_max":0,"o":"m 347 1274 l 454 1153 l 347 1031 l 240 1153 m 672 1274 l 778 1153 l 672 1031 l 564 1153 m 685 0 l 271 0 l 388 140 l 388 390 l 140 804 l 14 951 l 460 951 l 342 804 l 340 804 l 504 542 l 526 496 l 708 807 l 590 951 l 943 951 l 800 821 l 568 442 l 568 140 "},"Ỳ":{"ha":957,"x_min":0,"x_max":0,"o":"m 342 1207 l 524 1207 l 542 1028 l 521 1028 m 685 0 l 271 0 l 388 140 l 388 390 l 140 804 l 14 951 l 460 951 l 342 804 l 340 804 l 504 542 l 526 496 l 708 807 l 590 951 l 943 951 l 800 821 l 568 442 l 568 140 "},"Z":{"ha":928,"x_min":0,"x_max":0,"o":"m 850 -1 l 51 -1 l 42 15 l 622 886 l 292 886 l 108 646 l 103 646 l 111 964 l 258 950 l 854 950 l 864 931 l 275 61 l 668 61 l 860 300 l 865 300 "},"Ź":{"ha":928,"x_min":0,"x_max":0,"o":"m 399 1028 l 424 1207 l 599 1207 l 419 1028 m 661 50 l 854 299 l 865 299 l 850 0 l 51 0 l 42 17 l 632 901 l 300 901 l 114 650 l 103 650 l 111 965 l 258 951 l 854 951 l 864 932 l 267 50 "},"Ž":{"ha":928,"x_min":0,"x_max":0,"o":"m 599 1207 l 619 1207 l 532 1028 l 417 1028 l 331 1207 l 351 1207 l 475 1110 m 661 50 l 854 299 l 865 299 l 850 0 l 51 0 l 42 17 l 632 901 l 300 901 l 114 650 l 103 650 l 111 965 l 258 951 l 854 951 l 864 932 l 267 50 "},"Ż":{"ha":928,"x_min":0,"x_max":0,"o":"m 461 1250 l 558 1139 l 461 1026 l 363 1139 m 661 50 l 854 299 l 865 299 l 850 0 l 51 0 l 42 17 l 632 901 l 300 901 l 114 650 l 103 650 l 111 965 l 258 951 l 854 951 l 864 932 l 267 50 "},"a":{"ha":742,"x_min":0,"x_max":0,"o":"m 443 117 b 201 -14 390 65 293 -14 b 35 146 106 -14 35 33 b 443 444 35 288 203 360 b 326 642 443 556 440 642 b 78 458 215 642 149 564 l 68 458 l 68 681 l 640 681 l 610 561 l 610 90 l 611 90 l 714 0 l 443 0 m 443 406 b 218 192 225 318 218 258 b 322 96 218 125 264 96 b 443 154 365 96 408 118 "},"á":{"ha":742,"x_min":0,"x_max":0,"o":"m 294 767 l 319 946 l 494 946 l 315 767 m 443 117 b 201 -14 390 65 293 -14 b 35 146 106 -14 35 33 b 443 431 35 288 203 360 b 314 632 443 556 440 632 b 78 458 197 632 129 561 l 68 458 l 68 681 l 676 681 l 610 590 l 610 90 l 611 90 l 714 0 l 443 0 m 443 393 b 218 192 274 340 218 258 b 322 96 218 125 264 96 b 443 154 365 96 408 118 "},"â":{"ha":742,"x_min":0,"x_max":0,"o":"m 296 946 l 411 946 l 492 767 l 469 767 l 354 868 l 236 767 l 217 767 m 443 117 b 201 -14 390 65 293 -14 b 35 146 106 -14 35 33 b 443 431 35 288 203 360 b 314 632 443 556 440 632 b 78 458 197 632 129 561 l 68 458 l 68 681 l 676 681 l 610 590 l 610 90 l 611 90 l 714 0 l 443 0 m 443 393 b 218 192 274 340 218 258 b 322 96 218 125 264 96 b 443 154 365 96 408 118 "},"ä":{"ha":742,"x_min":0,"x_max":0,"o":"m 222 969 l 315 864 l 222 757 l 128 864 m 507 969 l 600 864 l 507 757 l 413 864 m 443 117 b 201 -14 390 65 293 -14 b 35 146 106 -14 35 33 b 443 431 35 288 203 360 b 314 632 443 556 440 632 b 78 458 197 632 129 561 l 68 458 l 68 681 l 676 681 l 610 590 l 610 90 l 611 90 l 714 0 l 443 0 m 443 393 b 218 192 274 340 218 258 b 322 96 218 125 264 96 b 443 154 365 96 408 118 "},"à":{"ha":742,"x_min":0,"x_max":0,"o":"m 246 946 l 421 946 l 446 767 l 425 767 m 443 117 b 201 -14 390 65 293 -14 b 35 146 106 -14 35 33 b 443 431 35 288 203 360 b 314 632 443 556 440 632 b 78 458 197 632 129 561 l 68 458 l 68 681 l 676 681 l 610 590 l 610 90 l 611 90 l 714 0 l 443 0 m 443 393 b 218 192 274 340 218 258 b 322 96 218 125 264 96 b 443 154 365 96 408 118 "},"å":{"ha":742,"x_min":0,"x_max":0,"o":"m 242 882 b 365 1006 242 950 297 1006 b 489 882 433 1006 489 950 b 365 758 489 814 433 758 b 242 882 297 758 242 814 m 281 882 b 365 797 281 835 318 797 b 450 882 413 797 450 835 b 365 967 450 929 413 967 b 281 882 318 967 281 929 m 443 117 b 201 -14 390 65 293 -14 b 35 146 106 -14 35 33 b 443 431 35 288 203 360 b 314 632 443 556 440 632 b 78 458 197 632 129 561 l 68 458 l 68 681 l 676 681 l 610 590 l 610 90 l 611 90 l 714 0 l 443 0 m 443 393 b 218 192 274 340 218 258 b 322 96 218 125 264 96 b 443 154 365 96 408 118 "},"ã":{"ha":742,"x_min":0,"x_max":0,"o":"m 272 944 b 465 926 336 939 401 926 b 526 974 486 926 506 947 l 547 965 l 465 822 b 260 840 397 828 328 840 b 204 781 242 840 222 811 l 185 793 m 443 117 b 201 -14 390 65 293 -14 b 35 146 106 -14 35 33 b 443 431 35 288 203 360 b 314 632 443 556 440 632 b 78 458 197 632 129 561 l 68 458 l 68 681 l 676 681 l 610 590 l 610 90 l 611 90 l 714 0 l 443 0 m 443 393 b 218 192 274 340 218 258 b 322 96 218 125 264 96 b 443 154 365 96 408 118 "},"æ":{"ha":1076,"x_min":0,"x_max":0,"o":"m 589 394 b 808 140 604 215 700 140 b 1007 246 903 140 986 188 l 1028 238 b 714 -17 978 111 879 -17 b 471 135 600 -17 518 47 b 201 -14 385 39 286 -14 b 35 146 106 -14 35 33 b 443 431 35 288 203 360 b 314 636 457 556 439 636 b 76 478 208 636 124 571 l 68 478 l 68 681 l 661 681 b 767 697 693 692 728 697 b 1035 394 933 697 1035 585 m 854 431 b 856 449 856 436 856 443 b 735 656 856 597 796 656 b 586 446 629 656 586 529 l 586 431 m 322 96 b 456 168 363 96 417 115 b 429 313 439 213 429 263 b 436 390 429 339 432 365 b 218 192 272 338 218 257 b 322 96 218 125 264 96 "},"b":{"ha":831,"x_min":0,"x_max":0,"o":"m 289 590 b 501 694 339 649 400 694 b 779 368 682 694 779 535 b 418 -12 779 214 683 -12 b 222 19 376 -12 292 0 l 122 -15 l 122 800 l 28 907 l 289 986 m 289 143 b 472 49 329 97 396 49 b 615 242 594 49 615 144 b 404 592 615 458 531 592 b 289 553 367 592 331 579 "},"c":{"ha":650,"x_min":0,"x_max":0,"o":"m 565 458 b 347 632 517 557 454 632 b 201 439 240 632 201 533 b 408 149 201 222 299 149 b 593 274 504 149 576 225 l 608 268 b 313 -17 579 156 485 -17 b 42 313 131 -17 42 146 b 408 681 42 478 143 681 l 575 681 l 575 458 "},"ć":{"ha":650,"x_min":0,"x_max":0,"o":"m 335 767 l 360 946 l 535 946 l 356 767 m 568 492 b 354 632 528 553 457 632 b 201 439 238 632 201 536 b 408 149 201 222 299 149 b 593 274 504 149 576 225 l 608 268 b 313 -17 579 156 485 -17 b 42 313 131 -17 42 146 b 408 681 42 478 143 681 l 575 681 l 575 492 "},"č":{"ha":650,"x_min":0,"x_max":0,"o":"m 475 946 l 497 946 l 417 767 l 301 767 l 222 946 l 242 946 l 360 844 m 568 492 b 354 632 528 553 457 632 b 201 439 238 632 201 536 b 408 149 201 222 299 149 b 593 274 504 149 576 225 l 608 268 b 313 -17 579 156 485 -17 b 42 313 131 -17 42 146 b 408 681 42 478 143 681 l 575 681 l 575 492 "},"ç":{"ha":650,"x_min":0,"x_max":0,"o":"m 568 492 b 354 632 528 553 457 632 b 201 439 238 632 201 536 b 408 149 201 222 299 149 b 593 274 504 149 576 225 l 608 268 b 331 -17 581 160 492 -4 l 314 -47 b 433 -133 354 -62 433 -87 b 303 -225 433 -183 372 -225 b 199 -185 263 -225 231 -212 l 208 -165 b 306 -201 236 -189 268 -201 b 371 -178 343 -201 371 -192 b 229 -100 371 -124 229 -121 l 288 -15 b 42 313 122 -1 42 154 b 408 681 42 478 143 681 l 575 681 l 575 492 "},"ĉ":{"ha":650,"x_min":0,"x_max":0,"o":"m 296 946 l 411 946 l 492 767 l 469 767 l 354 868 l 236 767 l 217 767 m 568 492 b 354 632 528 553 457 632 b 201 439 238 632 201 536 b 408 149 201 222 299 149 b 593 274 504 149 576 225 l 608 268 b 313 -17 579 156 485 -17 b 42 313 131 -17 42 146 b 408 681 42 478 143 681 l 575 681 l 575 492 "},"ċ":{"ha":650,"x_min":0,"x_max":0,"o":"m 354 982 l 451 871 l 354 758 l 256 871 m 568 492 b 354 632 528 553 457 632 b 201 439 238 632 201 536 b 408 149 201 222 299 149 b 593 274 504 149 576 225 l 608 268 b 313 -17 579 156 485 -17 b 42 313 131 -17 42 146 b 408 681 42 478 143 681 l 575 681 l 575 492 "},"d":{"ha":829,"x_min":0,"x_max":0,"o":"m 532 124 b 319 -14 490 51 426 -14 b 49 313 138 -14 49 146 b 415 681 49 492 163 681 l 532 681 l 532 800 l 438 907 l 699 986 l 699 97 l 801 0 l 532 -12 m 532 547 b 361 632 490 592 433 632 b 214 439 239 632 214 522 b 428 139 214 222 310 139 b 532 174 476 139 506 153 "},"ð":{"ha":750,"x_min":0,"x_max":0,"o":"m 469 869 b 708 371 588 735 708 557 b 336 -17 708 192 594 -17 b 42 310 139 -17 42 143 b 414 697 42 489 156 697 l 417 697 b 344 808 396 735 371 771 l 182 729 l 182 776 l 311 851 b 188 996 275 897 235 944 l 349 996 b 426 917 372 972 399 946 l 589 1010 l 592 929 m 339 644 b 218 436 224 644 218 519 b 413 36 218 219 290 36 b 535 244 515 36 535 172 b 339 644 535 461 461 644 "},"ď":{"ha":1053,"x_min":0,"x_max":0,"o":"m 794 651 b 889 754 842 678 889 701 b 844 826 889 790 863 807 l 790 869 l 906 988 b 1018 853 951 960 1018 900 b 814 638 1018 717 844 644 m 532 124 b 319 -14 490 51 426 -14 b 49 313 138 -14 49 146 b 415 681 49 492 163 681 l 532 681 l 532 800 l 438 907 l 699 986 l 699 97 l 801 0 l 532 -12 m 532 547 b 361 632 490 592 433 632 b 214 439 239 632 214 522 b 428 139 214 222 310 139 b 532 174 476 139 506 153 "},"e":{"ha":683,"x_min":0,"x_max":0,"o":"m 640 392 l 194 392 b 414 138 210 213 306 138 b 613 243 508 138 592 185 l 633 235 b 319 -19 583 108 485 -19 b 35 310 138 -19 35 143 b 372 694 35 489 146 694 b 640 396 538 694 639 583 l 642 393 l 640 393 m 461 446 b 340 653 461 594 401 653 b 192 443 235 653 192 526 l 192 433 l 461 433 "},"é":{"ha":690,"x_min":0,"x_max":0,"o":"m 314 764 l 339 943 l 514 943 l 335 764 m 647 392 l 201 392 b 421 138 217 213 313 138 b 619 243 515 138 599 185 l 640 235 b 326 -19 590 108 492 -19 b 42 310 144 -19 42 143 b 379 694 42 489 153 694 b 647 396 544 694 646 583 l 649 393 l 647 393 m 468 446 b 347 653 468 594 408 653 b 199 443 242 653 199 526 l 199 433 l 468 433 "},"ě":{"ha":689,"x_min":0,"x_max":0,"o":"m 475 946 l 497 946 l 417 767 l 301 767 l 222 946 l 242 946 l 360 844 m 201 394 b 421 140 217 215 313 140 b 619 246 515 140 599 188 l 640 238 b 326 -17 590 111 492 -17 b 42 313 144 -17 42 146 b 379 697 42 492 153 697 b 647 394 546 697 647 585 m 467 431 b 468 449 468 436 468 443 b 347 656 468 597 408 656 b 199 446 242 656 199 529 l 199 431 "},"ê":{"ha":690,"x_min":0,"x_max":0,"o":"m 224 764 l 303 943 l 418 943 l 499 764 l 476 764 l 361 865 l 243 764 m 647 392 l 201 392 b 421 138 217 213 313 138 b 619 243 515 138 599 185 l 640 235 b 326 -19 590 108 492 -19 b 42 310 144 -19 42 143 b 379 694 42 489 153 694 b 647 396 544 694 646 583 l 649 393 l 647 393 m 468 446 b 347 653 468 594 408 653 b 199 443 242 653 199 526 l 199 433 l 468 433 "},"ë":{"ha":690,"x_min":0,"x_max":0,"o":"m 128 861 l 222 967 l 315 861 l 222 754 m 413 861 l 507 967 l 600 861 l 507 754 m 647 392 l 201 392 b 421 138 217 213 313 138 b 619 243 515 138 599 185 l 640 235 b 326 -19 590 108 492 -19 b 42 310 144 -19 42 143 b 379 694 42 489 153 694 b 647 396 544 694 646 583 l 649 393 l 647 393 m 468 446 b 347 653 468 594 408 653 b 199 443 242 653 199 526 l 199 433 l 468 433 "},"ė":{"ha":689,"x_min":0,"x_max":0,"o":"m 368 982 l 465 871 l 368 758 l 269 871 m 201 394 b 421 140 217 215 313 140 b 619 246 515 140 599 188 l 640 238 b 326 -17 590 111 492 -17 b 42 313 144 -17 42 146 b 379 697 42 492 153 697 b 647 394 546 697 647 585 m 467 431 b 468 449 468 436 468 443 b 347 656 468 597 408 656 b 199 446 242 656 199 529 l 199 431 "},"è":{"ha":690,"x_min":0,"x_max":0,"o":"m 192 943 l 367 943 l 392 764 l 371 764 m 647 392 l 201 392 b 421 138 217 213 313 138 b 619 243 515 138 599 185 l 640 235 b 326 -19 590 108 492 -19 b 42 310 144 -19 42 143 b 379 694 42 489 153 694 b 647 396 544 694 646 583 l 649 393 l 647 393 m 468 446 b 347 653 468 594 408 653 b 199 443 242 653 199 526 l 199 433 l 468 433 "},"f":{"ha":538,"x_min":0,"x_max":0,"o":"m 593 756 l 583 756 b 372 917 543 817 475 917 b 265 804 290 917 265 865 b 290 681 265 763 276 717 l 557 681 l 526 606 l 290 606 l 290 118 l 417 -1 l 21 -1 l 124 118 l 124 593 l 26 679 l 33 676 l 26 681 l 125 681 b 426 964 140 814 226 964 l 593 964 "},"g":{"ha":703,"x_min":0,"x_max":0,"o":"m 626 817 b 575 619 619 732 606 683 b 624 485 607 582 624 535 b 310 217 624 365 525 217 b 226 228 279 217 251 221 b 175 165 207 210 175 185 b 251 99 175 124 203 104 l 625 99 b 657 -15 640 74 657 32 b 306 -322 657 -176 533 -322 b 28 -165 118 -322 28 -262 b 146 -39 28 -97 100 -58 b 63 74 106 -22 63 22 b 192 239 63 158 138 206 b 63 435 106 275 63 353 b 374 697 63 554 158 697 b 444 690 400 697 424 694 l 621 818 m 314 657 b 240 519 246 657 240 575 b 368 256 240 376 289 256 b 444 401 436 256 444 346 b 314 657 444 544 393 657 m 179 -58 b 133 -153 149 -82 133 -114 b 325 -290 133 -244 200 -290 b 553 -137 481 -290 553 -204 b 533 -58 553 -103 547 -76 "},"h":{"ha":867,"x_min":0,"x_max":0,"o":"m 297 571 b 526 700 353 657 443 700 b 735 478 668 700 735 608 l 735 119 l 736 119 l 839 0 l 467 0 l 568 118 l 568 431 b 446 606 568 538 553 606 b 297 524 394 606 342 583 l 297 119 l 400 0 l 28 0 l 131 119 l 131 786 l 36 893 l 297 986 "},"i":{"ha":442,"x_min":0,"x_max":0,"o":"m 217 1015 l 335 888 l 217 758 l 97 888 m 304 694 l 304 119 l 407 0 l 35 0 l 138 119 l 138 494 l 43 601 "},"ı":{"ha":442,"x_min":0,"x_max":0,"o":"m 304 694 l 304 119 l 407 0 l 35 0 l 138 119 l 138 494 l 43 601 "},"í":{"ha":442,"x_min":0,"x_max":0,"o":"m 136 767 l 161 946 l 336 946 l 157 767 m 304 694 l 304 119 l 407 0 l 35 0 l 138 119 l 138 494 l 43 601 "},"î":{"ha":442,"x_min":0,"x_max":0,"o":"m 150 946 l 265 946 l 346 767 l 324 767 l 208 868 l 90 767 l 71 767 m 304 694 l 304 119 l 407 0 l 35 0 l 138 119 l 138 494 l 43 601 "},"ï":{"ha":542,"x_min":0,"x_max":0,"o":"m 129 969 l 222 864 l 129 757 l 35 864 m 414 969 l 507 864 l 414 757 l 319 864 m 368 694 l 368 119 l 471 0 l 99 0 l 201 119 l 201 494 l 107 601 "},"ì":{"ha":442,"x_min":0,"x_max":0,"o":"m 229 767 l 50 946 l 225 946 l 250 767 m 304 694 l 304 119 l 407 0 l 35 0 l 138 119 l 138 494 l 43 601 "},"ĳ":{"ha":799,"x_min":0,"x_max":0,"o":"m 217 1015 l 335 888 l 217 758 l 97 888 m 639 1015 l 757 888 l 639 758 l 519 888 m 304 694 l 304 119 l 407 0 l 35 0 l 138 119 l 138 494 l 43 601 m 726 101 l 728 101 l 728 -90 b 546 -312 728 -197 593 -262 l 536 -308 b 560 -204 557 -275 560 -204 l 560 494 l 465 601 l 726 694 "},"j":{"ha":361,"x_min":0,"x_max":0,"o":"m 201 1015 l 319 888 l 201 758 l 82 888 m 289 101 l 290 101 l 290 -90 b 108 -312 290 -197 156 -262 l 99 -308 b 122 -204 119 -275 122 -204 l 122 494 l 28 601 l 289 694 "},"k":{"ha":804,"x_min":0,"x_max":0,"o":"m 297 336 l 528 571 l 468 681 l 767 681 l 767 671 l 622 586 l 422 406 l 692 100 l 804 13 l 804 0 l 558 0 l 519 61 l 297 324 l 297 119 l 400 0 l 28 0 l 131 119 l 131 800 l 36 907 l 297 986 "},"l":{"ha":428,"x_min":0,"x_max":0,"o":"m 131 611 l 36 718 l 131 747 l 131 800 l 36 907 l 297 986 l 297 119 l 400 0 l 28 0 l 131 119 "},"ĺ":{"ha":428,"x_min":0,"x_max":0,"o":"m 149 1028 l 174 1207 l 349 1207 l 169 1028 m 131 611 l 36 718 l 131 747 l 131 800 l 36 907 l 297 986 l 297 119 l 400 0 l 28 0 l 131 119 "},"ľ":{"ha":644,"x_min":0,"x_max":0,"o":"m 386 651 b 481 754 433 678 481 701 b 436 826 481 790 454 807 l 382 869 l 497 988 b 610 853 543 960 610 900 b 406 638 610 717 436 644 m 131 611 l 36 718 l 131 747 l 131 800 l 36 907 l 297 986 l 297 119 l 400 0 l 28 0 l 131 119 "},"ŀ":{"ha":607,"x_min":0,"x_max":0,"o":"m 131 611 l 36 718 l 131 747 l 131 800 l 36 907 l 297 986 l 297 119 l 400 0 l 28 0 l 131 119 m 515 551 l 633 422 l 515 294 l 396 422 "},"ł":{"ha":432,"x_min":0,"x_max":0,"o":"m 392 0 l 19 0 l 122 119 l 122 426 l -7 372 l -7 458 l 122 513 l 122 611 l 28 718 l 122 747 l 122 800 l 28 907 l 289 986 l 289 583 l 439 646 l 439 557 l 289 494 l 289 119 "},"m":{"ha":1269,"x_min":0,"x_max":0,"o":"m 297 593 b 508 697 351 656 419 697 b 700 575 610 697 674 650 b 929 697 749 642 838 697 b 1138 475 1071 697 1138 606 l 1138 119 l 1139 119 l 1242 0 l 869 0 l 971 118 l 971 428 b 849 603 971 535 956 603 b 713 532 797 603 756 581 b 717 475 715 514 717 494 l 717 119 l 718 119 l 821 0 l 449 0 l 550 118 l 550 428 b 428 603 550 535 535 603 b 297 539 379 603 339 583 l 297 119 l 400 0 l 28 0 l 131 119 l 131 494 l 36 601 l 297 694 "},"n":{"ha":871,"x_min":0,"x_max":0,"o":"m 471 0 l 571 119 l 571 428 b 449 603 571 535 556 603 b 300 521 397 603 344 581 l 300 119 l 400 0 l 28 0 l 133 119 l 133 494 l 39 601 l 300 694 l 300 568 b 529 697 356 654 446 697 b 738 475 671 697 738 606 l 738 119 l 843 0 "},"ń":{"ha":867,"x_min":0,"x_max":0,"o":"m 403 767 l 428 946 l 603 946 l 424 767 m 297 568 b 526 697 353 654 443 697 b 735 475 668 697 735 606 l 735 119 l 839 0 l 467 0 l 568 118 l 568 428 b 446 603 568 535 553 603 b 297 521 394 603 342 581 l 297 119 l 400 0 l 28 0 l 131 119 l 131 494 l 36 601 l 297 694 "},"ň":{"ha":867,"x_min":0,"x_max":0,"o":"m 553 946 l 575 946 l 494 767 l 379 767 l 300 946 l 319 946 l 438 844 m 297 568 b 526 697 353 654 443 697 b 735 475 668 697 735 606 l 735 119 l 736 119 l 839 0 l 467 0 l 568 118 l 568 428 b 446 603 568 535 553 603 b 297 521 394 603 342 581 l 297 119 l 400 0 l 28 0 l 131 119 l 131 494 l 36 601 l 297 694 "},"ñ":{"ha":867,"x_min":0,"x_max":0,"o":"m 340 944 b 533 926 404 939 469 926 b 594 974 554 926 574 947 l 615 965 l 533 822 b 328 840 465 828 396 840 b 272 781 310 840 290 811 l 253 793 m 297 568 b 526 697 353 654 443 697 b 735 475 668 697 735 606 l 735 119 l 736 119 l 839 0 l 467 0 l 568 118 l 568 428 b 446 603 568 535 553 603 b 297 521 394 603 342 581 l 297 119 l 400 0 l 28 0 l 131 119 l 131 494 l 36 601 l 297 694 "},"o":{"ha":774,"x_min":0,"x_max":0,"o":"m 722 371 b 343 -17 722 192 601 -17 b 42 310 146 -17 42 143 b 421 697 42 489 163 697 b 722 371 618 697 722 538 m 346 644 b 218 436 231 644 218 519 b 419 36 218 219 297 36 b 549 244 522 36 549 172 b 346 644 549 461 468 644 "},"ó":{"ha":774,"x_min":0,"x_max":0,"o":"m 315 767 l 340 946 l 515 946 l 336 767 m 722 371 b 343 -17 722 192 601 -17 b 42 310 146 -17 42 143 b 421 697 42 489 163 697 b 722 371 618 697 722 538 m 346 644 b 218 436 231 644 218 519 b 419 36 218 219 297 36 b 549 244 522 36 549 172 b 346 644 549 461 468 644 "},"ô":{"ha":774,"x_min":0,"x_max":0,"o":"m 324 946 l 439 946 l 519 767 l 497 767 l 382 868 l 264 767 l 244 767 m 722 371 b 343 -17 722 192 601 -17 b 42 310 146 -17 42 143 b 421 697 42 489 163 697 b 722 371 618 697 722 538 m 346 644 b 218 436 231 644 218 519 b 419 36 218 219 297 36 b 549 244 522 36 549 172 b 346 644 549 461 468 644 "},"ö":{"ha":774,"x_min":0,"x_max":0,"o":"m 235 974 l 328 868 l 235 761 l 140 868 m 519 974 l 613 868 l 519 761 l 425 868 m 722 371 b 343 -17 722 192 601 -17 b 42 310 146 -17 42 143 b 421 697 42 489 163 697 b 722 371 618 697 722 538 m 346 644 b 218 436 231 644 218 519 b 419 36 218 219 297 36 b 549 244 522 36 549 172 b 346 644 549 461 468 644 "},"ò":{"ha":774,"x_min":0,"x_max":0,"o":"m 225 946 l 400 946 l 425 767 l 404 767 m 722 371 b 343 -17 722 192 601 -17 b 42 310 146 -17 42 143 b 421 697 42 489 163 697 b 722 371 618 697 722 538 m 346 644 b 218 436 231 644 218 519 b 419 36 218 219 297 36 b 549 244 522 36 549 172 b 346 644 549 461 468 644 "},"ø":{"ha":782,"x_min":0,"x_max":0,"o":"m 631 625 b 735 371 700 563 735 468 b 356 -17 735 192 614 -17 b 213 17 300 -17 253 -4 l 142 -86 l 49 -86 l 151 63 b 54 310 88 125 54 217 b 433 697 54 489 175 697 b 568 668 485 697 529 686 l 647 783 l 740 783 m 490 554 b 358 644 456 611 411 644 b 231 436 243 644 231 519 b 260 221 231 357 240 283 m 294 136 b 432 36 329 75 376 36 b 561 244 535 36 561 172 b 526 474 561 329 549 408 "},"õ":{"ha":774,"x_min":0,"x_max":0,"o":"m 529 929 l 550 921 l 468 778 l 263 796 l 207 736 l 188 749 l 275 900 l 468 882 m 722 371 b 343 -17 722 192 601 -17 b 42 310 146 -17 42 143 b 421 697 42 489 163 697 b 722 371 618 697 722 538 m 346 644 b 218 436 231 644 218 519 b 419 36 218 219 297 36 b 549 244 522 36 549 172 b 346 644 549 461 468 644 "},"œ":{"ha":1163,"x_min":0,"x_max":0,"o":"m 1115 238 b 810 -17 1068 111 967 -17 b 603 96 719 -17 649 29 b 342 -17 543 29 457 -17 b 49 310 147 -17 49 143 b 415 697 49 489 165 697 b 633 590 513 697 586 654 b 861 697 686 654 763 697 b 1122 394 1019 697 1122 585 l 701 394 b 703 371 701 386 703 379 b 701 350 703 364 701 357 b 900 140 724 200 804 140 b 1096 246 990 140 1076 188 m 944 431 b 831 656 949 592 890 656 b 696 444 732 656 697 528 l 697 431 m 344 644 b 224 436 235 644 224 519 b 414 36 224 219 299 36 b 538 244 513 36 538 172 b 344 644 538 461 461 644 "},"p":{"ha":839,"x_min":0,"x_max":0,"o":"m 297 590 b 510 694 347 649 408 694 b 788 368 690 694 788 535 b 426 -12 788 214 692 -12 b 297 4 397 -12 349 -7 l 297 -179 l 426 -299 l 28 -299 l 131 -179 l 131 524 l 36 631 l 297 710 m 297 143 b 481 49 338 97 404 49 b 624 242 603 49 624 144 b 413 592 624 458 532 592 b 297 553 375 592 339 579 "},"þ":{"ha":839,"x_min":0,"x_max":0,"o":"m 297 590 b 510 694 347 649 408 694 b 788 368 690 694 788 535 b 426 -12 788 214 692 -12 b 297 4 397 -12 349 -7 l 297 -179 l 426 -299 l 28 -299 l 131 -179 l 131 800 l 36 907 l 297 986 m 297 143 b 481 49 338 97 404 49 b 624 242 603 49 624 144 b 413 592 624 458 532 592 b 297 553 375 592 339 579 "},"q":{"ha":774,"x_min":0,"x_max":0,"o":"m 525 -179 l 525 126 b 313 -14 475 49 400 -14 b 42 313 131 -14 42 146 b 408 681 42 492 156 681 b 565 664 476 681 515 675 l 692 694 l 692 -179 l 794 -299 l 396 -299 m 525 547 b 354 632 483 592 426 632 b 207 439 232 632 207 522 b 421 139 207 222 303 139 b 525 172 471 139 497 151 "},"r":{"ha":639,"x_min":0,"x_max":0,"o":"m 607 435 b 400 629 546 581 464 629 b 304 418 304 629 304 560 l 304 119 l 433 0 l 35 0 l 138 119 l 138 574 l 43 681 l 618 681 l 618 435 "},"ŕ":{"ha":639,"x_min":0,"x_max":0,"o":"m 324 946 l 499 946 l 319 767 l 299 767 m 607 435 b 400 629 546 581 464 629 b 304 418 304 629 304 560 l 304 119 l 433 0 l 35 0 l 138 119 l 138 574 l 43 681 l 618 681 l 618 435 "},"ř":{"ha":639,"x_min":0,"x_max":0,"o":"m 240 946 l 358 844 l 474 946 l 496 946 l 415 767 l 300 767 l 221 946 m 607 435 b 400 629 546 581 464 629 b 304 418 304 629 304 560 l 304 119 l 433 0 l 35 0 l 138 119 l 138 574 l 43 681 l 618 681 l 618 435 "},"s":{"ha":571,"x_min":0,"x_max":0,"o":"m 46 263 b 306 39 82 143 192 39 b 410 129 363 39 410 67 b 42 488 410 293 42 213 b 274 681 42 590 132 681 l 426 681 l 478 710 l 478 479 l 469 481 b 247 636 419 571 336 638 b 156 544 189 635 156 599 b 536 210 156 401 536 464 b 264 -14 536 49 374 -14 b 47 18 194 -14 100 -4 l 35 263 "},"ś":{"ha":571,"x_min":0,"x_max":0,"o":"m 258 767 l 283 946 l 458 946 l 279 767 m 46 263 b 306 39 82 143 192 39 b 410 129 363 39 410 67 b 42 488 410 293 42 213 b 274 681 42 590 132 681 l 426 681 l 478 710 l 478 479 l 469 481 b 247 636 419 571 322 636 b 156 544 189 636 156 599 b 536 210 156 401 536 464 b 264 -14 536 49 374 -14 b 47 18 194 -14 100 -4 l 35 263 "},"š":{"ha":571,"x_min":0,"x_max":0,"o":"m 414 946 l 436 946 l 356 767 l 240 767 l 161 946 l 181 946 l 299 844 m 46 263 b 306 39 82 143 192 39 b 410 129 363 39 410 67 b 42 488 410 293 42 213 b 274 681 42 590 132 681 l 426 681 l 478 710 l 478 479 l 469 481 b 247 636 419 571 322 636 b 156 544 189 636 156 599 b 536 210 156 401 536 464 b 264 -14 536 49 374 -14 b 47 18 194 -14 100 -4 l 35 263 "},"ß":{"ha":811,"x_min":0,"x_max":0,"o":"m 131 681 b 433 965 131 736 214 965 b 665 782 532 965 665 940 b 515 543 665 689 554 576 b 776 233 603 485 776 407 b 529 -6 776 88 699 -6 b 367 0 524 -6 440 -6 l 376 229 l 392 229 b 571 42 450 68 529 42 b 665 154 628 42 665 74 b 368 438 665 276 425 418 b 517 763 474 567 517 646 b 385 918 517 871 450 918 b 278 724 303 918 224 844 l 297 681 l 297 0 l 28 0 l 131 119 l 131 593 l 33 681 "},"t":{"ha":583,"x_min":0,"x_max":0,"o":"m 272 681 l 539 681 l 508 606 l 272 606 l 272 264 b 385 94 272 131 303 94 b 521 175 426 94 490 115 l 538 153 b 283 -17 471 40 396 -17 b 106 197 188 -17 106 39 l 106 593 l 14 681 l 272 878 "},"ť":{"ha":750,"x_min":0,"x_max":0,"o":"m 485 790 b 579 893 532 817 579 840 b 535 965 579 929 553 946 l 481 1008 l 596 1126 b 708 992 642 1099 708 1039 b 504 776 708 856 535 783 m 106 197 b 283 -17 106 39 188 -17 b 538 153 396 -17 471 40 l 521 175 b 385 94 490 115 426 94 b 272 264 303 94 272 131 l 272 606 l 508 606 l 539 681 l 272 681 l 272 878 l 14 681 l 106 593 "},"u":{"ha":821,"x_min":0,"x_max":0,"o":"m 278 256 b 400 81 278 149 293 81 b 532 146 447 81 496 104 l 532 561 l 429 682 l 699 682 l 699 114 l 793 0 l 532 -8 l 532 103 b 319 -14 482 33 418 -14 b 111 208 178 -14 111 78 l 111 561 l 7 682 l 278 682 "},"ú":{"ha":821,"x_min":0,"x_max":0,"o":"m 354 767 l 379 946 l 554 946 l 375 767 m 278 256 b 400 81 278 149 293 81 b 532 146 447 81 496 104 l 532 561 l 429 682 l 699 682 l 699 114 l 793 0 l 532 -8 l 532 103 b 319 -14 482 33 418 -14 b 111 208 178 -14 111 78 l 111 561 l 7 682 l 278 682 "},"û":{"ha":821,"x_min":0,"x_max":0,"o":"m 314 946 l 429 946 l 510 767 l 488 767 l 372 868 l 254 767 l 235 767 m 278 256 b 400 81 278 149 293 81 b 532 146 447 81 496 104 l 532 561 l 429 682 l 699 682 l 699 114 l 793 0 l 532 -8 l 532 103 b 319 -14 482 33 418 -14 b 111 208 178 -14 111 78 l 111 561 l 7 682 l 278 682 "},"ü":{"ha":821,"x_min":0,"x_max":0,"o":"m 242 974 l 335 868 l 242 761 l 147 868 m 526 974 l 619 868 l 526 761 l 432 868 m 278 256 b 400 81 278 149 293 81 b 532 146 447 81 496 104 l 532 561 l 429 682 l 699 682 l 699 114 l 793 0 l 532 -8 l 532 103 b 319 -14 482 33 418 -14 b 111 208 178 -14 111 78 l 111 561 l 7 682 l 278 682 "},"ù":{"ha":821,"x_min":0,"x_max":0,"o":"m 210 946 l 385 946 l 410 767 l 389 767 m 278 256 b 400 81 278 149 293 81 b 532 146 447 81 496 104 l 532 561 l 429 682 l 699 682 l 699 114 l 793 0 l 532 -8 l 532 103 b 319 -14 482 33 418 -14 b 111 208 178 -14 111 78 l 111 561 l 7 682 l 278 682 "},"ů":{"ha":821,"x_min":0,"x_max":0,"o":"m 265 882 b 389 1006 265 950 321 1006 b 513 882 457 1006 513 950 b 389 758 513 814 457 758 b 265 882 321 758 265 814 m 304 882 b 389 797 304 835 342 797 b 474 882 436 797 474 835 b 389 967 474 929 436 967 b 304 882 342 967 304 929 m 278 256 b 400 81 278 149 293 81 b 532 146 447 81 496 104 l 532 561 l 429 682 l 699 682 l 699 114 l 793 0 l 532 -8 l 532 103 b 319 -14 482 33 418 -14 b 111 208 178 -14 111 78 l 111 561 l 7 682 l 278 682 "},"v":{"ha":754,"x_min":0,"x_max":0,"o":"m 747 681 l 669 593 l 396 -19 l 390 -31 l 363 -31 l 85 593 l 7 681 l 374 681 l 272 592 l 418 233 l 435 186 l 603 592 l 501 681 "},"w":{"ha":1143,"x_min":0,"x_max":0,"o":"m 0 681 l 368 681 l 267 592 l 413 233 l 429 186 l 553 485 l 517 568 l 425 681 l 792 681 l 692 592 l 836 233 l 853 203 l 1003 592 l 903 681 l 1150 681 l 1068 594 l 811 -31 l 781 -31 l 583 417 l 386 -31 l 356 -31 l 92 568 "},"ẃ":{"ha":1143,"x_min":0,"x_max":0,"o":"m 556 767 l 581 946 l 756 946 l 576 767 m 0 681 l 368 681 l 267 592 l 413 233 l 429 186 l 553 485 l 517 568 l 425 681 l 792 681 l 692 592 l 836 233 l 853 203 l 1003 592 l 903 681 l 1150 681 l 1068 594 l 811 -31 l 781 -31 l 583 417 l 386 -31 l 356 -31 l 92 568 "},"ŵ":{"ha":1143,"x_min":0,"x_max":0,"o":"m 529 946 l 644 946 l 718 767 l 696 767 l 588 868 l 476 767 l 457 767 m 0 681 l 368 681 l 267 592 l 413 233 l 429 186 l 553 485 l 517 568 l 425 681 l 792 681 l 692 592 l 836 233 l 853 203 l 1003 592 l 903 681 l 1150 681 l 1068 594 l 811 -31 l 781 -31 l 583 417 l 386 -31 l 356 -31 l 92 568 "},"ẅ":{"ha":1143,"x_min":0,"x_max":0,"o":"m 471 969 l 564 864 l 471 757 l 376 864 m 756 969 l 849 864 l 756 757 l 661 864 m 0 681 l 368 681 l 267 592 l 413 233 l 429 186 l 553 485 l 517 568 l 425 681 l 792 681 l 692 592 l 836 233 l 853 203 l 1003 592 l 903 681 l 1150 681 l 1068 594 l 811 -31 l 781 -31 l 583 417 l 386 -31 l 356 -31 l 92 568 "},"ẁ":{"ha":1143,"x_min":0,"x_max":0,"o":"m 461 946 l 636 946 l 661 767 l 640 767 m 0 681 l 368 681 l 267 592 l 413 233 l 429 186 l 553 485 l 517 568 l 425 681 l 792 681 l 692 592 l 836 233 l 853 203 l 1003 592 l 903 681 l 1150 681 l 1068 594 l 811 -31 l 781 -31 l 583 417 l 386 -31 l 356 -31 l 92 568 "},"x":{"ha":811,"x_min":0,"x_max":0,"o":"m 415 0 l 504 92 l 368 271 l 221 89 l 297 0 l 7 0 l 131 88 l 326 326 l 124 593 l 22 681 l 401 681 l 313 592 l 433 433 l 557 592 l 481 681 l 772 681 l 649 593 l 472 382 l 694 90 l 811 0 "},"y":{"ha":743,"x_min":0,"x_max":0,"o":"m 368 681 l 267 592 l 413 233 l 429 186 l 597 592 l 496 681 l 743 681 l 661 594 l 338 -179 l 438 -299 l 139 -299 l 261 -174 l 343 14 l 92 568 l 0 681 "},"ý":{"ha":743,"x_min":0,"x_max":0,"o":"m 388 767 l 413 946 l 588 946 l 408 767 m 368 681 l 267 592 l 413 233 l 429 186 l 597 592 l 496 681 l 743 681 l 661 594 l 339 -179 l 439 -299 l 139 -299 l 261 -174 l 343 14 l 92 568 l 0 681 "},"ŷ":{"ha":743,"x_min":0,"x_max":0,"o":"m 365 946 l 481 946 l 561 767 l 539 767 l 424 868 l 306 767 l 286 767 m 368 681 l 267 592 l 413 233 l 429 186 l 597 592 l 496 681 l 743 681 l 661 594 l 338 -179 l 438 -299 l 139 -299 l 261 -174 l 343 14 l 92 568 l 0 681 "},"ÿ":{"ha":743,"x_min":0,"x_max":0,"o":"m 264 969 l 357 864 l 264 757 l 169 864 m 549 969 l 642 864 l 549 757 l 454 864 m 368 681 l 267 592 l 413 233 l 429 186 l 597 592 l 496 681 l 743 681 l 661 594 l 339 -179 l 439 -299 l 139 -299 l 261 -174 l 343 14 l 92 568 l 0 681 "},"ỳ":{"ha":743,"x_min":0,"x_max":0,"o":"m 424 767 l 244 946 l 419 946 l 444 767 m 368 681 l 267 592 l 413 233 l 429 186 l 597 592 l 496 681 l 743 681 l 661 594 l 338 -179 l 438 -299 l 139 -299 l 261 -174 l 343 14 l 92 568 l 0 681 "},"z":{"ha":703,"x_min":0,"x_max":0,"o":"m 651 0 l 28 0 l 446 631 l 231 631 l 93 422 l 85 422 l 85 706 l 204 681 l 671 681 l 253 50 l 504 50 l 667 290 l 675 288 l 651 21 "},"ź":{"ha":704,"x_min":0,"x_max":0,"o":"m 332 767 l 357 946 l 532 946 l 353 767 m 504 50 l 676 300 l 651 21 l 651 0 l 28 0 l 446 631 l 231 631 l 85 411 l 85 706 l 204 681 l 671 681 l 253 50 "},"ž":{"ha":704,"x_min":0,"x_max":0,"o":"m 492 946 l 514 946 l 433 767 l 318 767 l 239 946 l 258 946 l 376 844 m 504 50 l 676 300 l 651 21 l 651 0 l 28 0 l 446 631 l 231 631 l 85 411 l 85 706 l 204 681 l 671 681 l 253 50 "},"ż":{"ha":704,"x_min":0,"x_max":0,"o":"m 375 979 l 472 868 l 375 756 l 276 868 m 504 50 l 676 300 l 651 21 l 651 0 l 28 0 l 446 631 l 231 631 l 85 411 l 85 706 l 204 681 l 671 681 l 253 50 "},"ﬂ":{"ha":856,"x_min":0,"x_max":0,"o":"m 828 0 l 461 0 l 558 119 l 558 606 l 290 606 l 290 117 l 379 0 l 21 0 l 124 119 l 124 593 l 26 681 l 131 681 b 426 965 131 736 207 965 l 681 965 l 725 986 l 725 119 m 558 817 b 372 917 515 868 453 917 b 265 804 290 917 265 865 b 290 681 265 763 276 717 l 557 681 l 558 678 "},"Λ":{"ha":949,"x_min":0,"x_max":0,"o":"m 179 119 l 297 0 l 7 0 l 104 124 l 436 979 l 503 979 l 869 82 l 942 0 l 563 0 l 674 85 l 432 694 l 414 760 "},"μ":{"ha":821,"x_min":0,"x_max":0,"o":"m 532 103 b 319 -14 482 33 418 -14 b 269 -4 304 -14 290 -12 l 278 -43 l 278 -297 l 8 -297 l 111 -178 l 111 561 l 7 682 l 278 682 l 278 256 b 400 81 278 149 293 81 b 532 146 447 81 496 104 l 532 561 l 429 682 l 699 682 l 699 114 l 793 0 l 532 -8 "},"π":{"ha":888,"x_min":0,"x_max":0,"o":"m 831 100 b 640 -15 775 26 731 -15 b 496 158 553 -15 496 32 l 496 525 l 317 525 l 317 0 l 72 0 l 189 74 l 201 525 l 189 525 b 44 428 121 525 85 504 l 35 428 l 43 469 b 235 681 81 649 110 681 l 793 681 l 793 525 l 663 525 l 663 186 b 726 75 663 100 690 75 b 817 117 769 75 796 93 "},"⁄":{"ha":653,"x_min":0,"x_max":0,"o":"m 71 -46 l 6 -46 l 632 999 l 699 999 "},"½":{"ha":1172,"x_min":0,"x_max":0,"o":"m 221 -46 l 156 -46 l 782 999 l 849 999 m 86 757 l 299 954 l 299 471 l 392 413 l 96 413 l 182 471 l 182 788 l 88 756 m 643 29 b 911 406 725 88 911 244 b 804 497 911 461 871 497 b 661 372 733 497 694 451 l 657 372 l 657 525 l 789 525 b 1044 389 919 525 1044 482 b 776 103 1044 264 861 192 l 779 99 l 826 103 l 1025 106 l 1082 213 l 1086 213 l 1065 0 l 651 0 "},"¼":{"ha":1035,"x_min":0,"x_max":0,"o":"m 278 -46 l 213 -46 l 839 999 l 906 999 m 86 757 l 299 954 l 299 471 l 392 413 l 96 413 l 182 471 l 182 788 l 88 756 m 1017 171 l 1017 131 l 890 131 l 890 58 l 983 0 l 688 0 l 774 58 l 774 132 l 535 132 l 771 526 l 913 526 l 635 172 l 772 172 l 772 243 l 890 400 l 890 171 "},"¾":{"ha":1121,"x_min":0,"x_max":0,"o":"m 326 -46 l 261 -46 l 888 999 l 954 999 m 60 438 b 317 560 158 438 317 467 b 153 682 317 638 243 667 b 122 676 143 681 133 678 l 119 692 l 153 701 b 331 832 215 722 331 757 b 211 924 331 889 283 924 b 78 801 139 924 107 864 l 72 801 l 72 951 l 225 951 b 464 844 353 951 464 925 b 244 707 464 786 392 746 b 472 590 342 700 472 675 b 67 411 472 463 171 411 m 1065 171 l 1065 131 l 939 131 l 939 58 l 1032 0 l 736 0 l 822 58 l 822 132 l 583 132 l 819 526 l 961 526 l 683 172 l 821 172 l 821 243 l 939 400 l 939 171 "},"⅛":{"ha":1064,"x_min":0,"x_max":0,"o":"m 292 -46 l 226 -46 l 853 999 l 919 999 m 86 757 l 299 954 l 299 471 l 392 413 l 96 413 l 182 471 l 182 788 l 88 756 m 874 539 b 681 400 783 539 681 496 b 778 260 681 329 728 299 b 657 115 729 232 657 197 b 846 -14 657 39 736 -14 b 1069 153 922 -14 1069 28 b 940 315 1069 238 1004 276 b 1032 433 989 343 1032 376 b 874 539 1032 504 942 539 m 918 325 b 768 431 846 356 768 376 b 865 514 768 486 815 514 b 967 422 913 514 967 489 b 918 325 967 382 956 350 m 806 249 b 974 110 888 217 974 197 b 847 11 974 43 918 11 b 722 119 760 11 722 64 b 806 249 722 179 765 225 "},"⅜":{"ha":1094,"x_min":0,"x_max":0,"o":"m 285 -46 l 219 -46 l 846 999 l 913 999 m 60 438 b 317 560 158 438 317 467 b 153 682 317 638 243 667 b 122 676 143 681 133 678 l 119 692 l 153 701 b 331 832 215 722 331 757 b 211 924 331 889 283 924 b 78 801 139 924 107 864 l 72 801 l 72 951 l 225 951 b 464 844 353 951 464 925 b 244 707 464 786 392 746 b 472 590 342 700 472 675 b 67 411 472 463 171 411 m 865 539 b 672 400 775 539 672 496 b 769 260 672 329 719 299 b 649 115 721 232 649 197 b 838 -14 649 39 728 -14 b 1061 153 914 -14 1061 28 b 932 315 1061 238 996 276 b 1024 433 981 343 1024 376 b 865 539 1024 504 933 539 m 910 325 b 760 431 838 356 760 376 b 857 514 760 486 807 514 b 958 422 904 514 958 489 b 910 325 958 382 947 350 m 797 249 b 965 110 879 217 965 197 b 839 11 965 43 910 11 b 714 119 751 11 714 64 b 797 249 714 179 757 225 "},"⅝":{"ha":1065,"x_min":0,"x_max":0,"o":"m 268 -46 l 203 -46 l 829 999 l 896 999 m 150 756 b 247 775 185 769 218 775 b 440 613 342 775 440 714 b 172 426 440 488 335 426 l 54 426 b 57 578 54 426 57 518 l 64 578 b 226 454 64 578 125 454 b 322 578 286 454 322 475 b 211 740 322 644 313 740 b 100 699 178 740 139 728 l 97 683 l 64 683 l 103 933 l 106 951 l 383 951 l 440 996 l 431 951 l 404 846 l 132 846 l 111 740 m 888 315 b 1017 153 951 276 1017 238 b 793 -14 1017 28 869 -14 b 604 115 683 -14 604 39 b 725 260 604 197 676 232 b 628 400 675 299 628 329 b 821 539 628 496 731 539 b 979 433 889 539 979 504 b 888 315 979 376 936 343 m 715 431 b 865 325 715 376 793 356 b 914 422 903 350 914 382 b 813 514 914 489 860 514 b 715 431 763 514 715 486 m 794 11 b 921 110 865 11 921 43 b 753 249 921 197 835 217 b 669 119 713 225 669 179 b 794 11 669 64 707 11 "},"⅞":{"ha":1069,"x_min":0,"x_max":0,"o":"m 225 -46 l 160 -46 l 786 999 l 853 999 m 49 782 l 49 951 l 454 951 l 139 413 l 100 426 l 333 846 l 99 846 l 51 782 m 811 539 b 618 400 721 539 618 496 b 715 260 618 329 665 299 b 594 115 667 232 594 197 b 783 -14 594 39 674 -14 b 1007 153 860 -14 1007 28 b 878 315 1007 238 942 276 b 969 433 926 343 969 376 b 811 539 969 504 879 539 m 856 325 b 706 431 783 356 706 376 b 803 514 706 486 753 514 b 904 422 850 514 904 489 b 856 325 904 382 893 350 m 743 249 b 911 110 825 217 911 197 b 785 11 911 43 856 11 b 660 119 697 11 660 64 b 743 249 660 179 703 225 "},"⁰":{"ha":568,"x_min":0,"x_max":0,"o":"m 513 838 b 257 539 513 700 426 539 b 56 790 126 539 56 664 b 310 1089 56 928 140 1089 b 513 838 442 1089 513 964 m 261 1049 b 175 888 186 1049 175 951 b 310 579 175 722 231 579 b 396 740 375 579 396 686 b 261 1049 396 906 339 1049 "},"¹":{"ha":457,"x_min":0,"x_max":0,"o":"m 86 936 l 299 1133 l 299 650 l 392 592 l 96 592 l 182 650 l 182 967 l 88 935 "},"²":{"ha":493,"x_min":0,"x_max":0,"o":"m 35 629 b 303 1006 117 688 303 844 b 196 1097 303 1061 263 1097 b 53 972 125 1097 86 1051 l 49 972 l 49 1125 l 181 1125 b 436 989 311 1125 436 1082 b 168 703 436 864 253 792 l 171 699 l 218 703 l 417 706 l 474 813 l 478 813 l 457 600 l 43 600 "},"³":{"ha":493,"x_min":0,"x_max":0,"o":"m 60 604 b 317 726 158 604 317 633 b 153 849 317 804 243 833 b 122 843 143 847 133 844 l 119 858 l 153 868 b 331 999 215 889 331 924 b 211 1090 331 1056 283 1090 b 78 968 139 1090 107 1031 l 72 968 l 72 1118 l 225 1118 b 464 1011 353 1118 464 1092 b 244 874 464 953 392 913 b 472 757 342 867 472 842 b 67 578 472 629 171 578 "},"⁴":{"ha":538,"x_min":0,"x_max":0,"o":"m 510 763 l 510 722 l 383 722 l 383 650 l 476 592 l 181 592 l 267 650 l 267 724 l 28 724 l 264 1118 l 406 1118 l 128 764 l 265 764 l 265 835 l 383 992 l 383 763 "},"⁵":{"ha":472,"x_min":0,"x_max":0,"o":"m 150 921 b 247 940 185 935 218 940 b 440 778 342 940 440 879 b 172 592 440 653 335 592 l 54 592 b 57 743 54 592 57 683 l 64 743 b 226 619 64 743 125 619 b 322 743 286 619 322 640 b 211 906 322 810 313 906 b 100 864 178 906 139 893 l 97 849 l 64 849 l 103 1099 l 106 1117 l 383 1117 l 440 1161 l 431 1117 l 404 1011 l 132 1011 l 111 906 "},"⁶":{"ha":454,"x_min":0,"x_max":0,"o":"m 382 1113 b 129 881 256 1067 163 992 b 235 914 156 894 199 914 b 407 758 328 914 407 860 b 189 585 407 678 326 585 b -6 761 78 585 -6 651 b 376 1135 -6 928 167 1061 m 121 850 b 113 765 114 822 113 797 b 208 614 113 668 153 614 b 292 739 274 614 292 699 b 188 878 292 831 233 878 b 121 850 158 878 136 861 "},"⁷":{"ha":503,"x_min":0,"x_max":0,"o":"m 49 944 l 49 1114 l 454 1114 l 139 575 l 100 589 l 333 1008 l 99 1008 l 51 944 "},"⁸":{"ha":506,"x_min":0,"x_max":0,"o":"m 263 1138 b 421 1032 331 1138 421 1103 b 329 914 421 975 378 942 b 458 751 393 875 458 836 b 235 585 458 626 311 585 b 46 714 125 585 46 638 b 167 858 46 796 118 831 b 69 999 117 897 69 928 b 263 1138 69 1094 172 1138 m 307 924 b 356 1021 344 949 356 981 b 254 1113 356 1088 301 1113 b 157 1029 204 1113 157 1085 b 307 924 157 975 235 954 m 194 847 b 111 718 154 824 111 778 b 236 610 111 663 149 610 b 363 708 307 610 363 642 b 194 847 363 796 276 815 "},"⁹":{"ha":493,"x_min":0,"x_max":0,"o":"m 113 604 b 374 836 243 650 339 725 b 264 803 346 822 301 803 b 88 958 168 803 88 857 b 311 1132 88 1039 169 1132 b 513 956 426 1132 513 1065 b 118 582 513 789 335 656 m 382 867 b 390 951 389 894 390 919 b 292 1103 390 1049 349 1103 b 206 978 225 1103 206 1018 b 313 839 206 886 265 839 b 382 867 343 839 365 856 "},"*":{"ha":465,"x_min":0,"x_max":0,"o":"m 222 746 l 183 908 l 233 967 l 285 911 l 247 746 m 204 738 l 82 851 l 7 838 l 29 765 l 192 715 m 263 738 l 383 851 l 460 838 l 436 765 l 275 715 m 204 671 l 82 556 l 7 571 l 29 643 l 192 693 m 263 671 l 383 556 l 460 571 l 436 643 l 275 693 m 247 665 l 286 503 l 236 444 l 185 500 l 222 665 "},"\\":{"ha":600,"x_min":0,"x_max":0,"o":"m 579 0 l 472 0 l 39 965 l 146 965 "},"•":{"ha":482,"x_min":0,"x_max":0,"o":"m 242 558 l 419 365 l 242 174 l 63 365 "},":":{"ha":251,"x_min":0,"x_max":0,"o":"m 126 594 l 244 465 l 126 338 l 7 465 m 126 221 l 244 92 l 126 -36 l 7 92 "},",":{"ha":315,"x_min":0,"x_max":0,"o":"m 46 -157 b 136 -12 93 -118 136 -65 b 96 60 136 24 114 40 l 42 103 l 157 221 b 269 86 203 193 269 133 b 65 -171 269 -50 96 -151 "},"…":{"ha":1060,"x_min":0,"x_max":0,"o":"m 154 219 l 272 92 l 154 -36 l 35 92 m 531 219 l 649 92 l 531 -36 l 411 92 m 907 219 l 1025 92 l 907 -36 l 788 92 "},"!":{"ha":301,"x_min":0,"x_max":0,"o":"m 164 306 l 114 306 l 46 913 l 139 976 l 231 913 m 146 221 l 264 92 l 146 -36 l 26 92 "},"¡":{"ha":301,"x_min":0,"x_max":0,"o":"m 150 442 l 32 571 l 150 699 l 269 571 m 132 357 l 182 357 l 250 -250 l 157 -314 l 65 -250 "},"#":{"ha":811,"x_min":0,"x_max":0,"o":"m 517 596 l 582 844 l 685 844 l 619 596 l 769 596 l 769 526 l 601 526 l 550 315 l 731 315 l 731 244 l 532 244 l 467 0 l 364 0 l 429 244 l 265 244 l 199 0 l 96 0 l 163 244 l 42 244 l 42 315 l 181 315 l 232 526 l 81 526 l 81 596 l 250 596 l 314 844 l 417 844 l 353 596 m 447 315 l 499 526 l 335 526 l 283 315 "},".":{"ha":251,"x_min":0,"x_max":0,"o":"m 126 221 l 244 92 l 126 -36 l 7 92 "},"·":{"ha":251,"x_min":0,"x_max":0,"o":"m 126 494 l 244 365 l 126 238 l 7 365 "},"?":{"ha":700,"x_min":0,"x_max":0,"o":"m 211 965 b 639 750 411 965 639 940 b 294 456 639 569 386 503 l 278 306 l 244 306 l 219 475 b 428 719 347 519 428 624 b 319 914 428 872 375 914 b 136 729 214 914 167 832 l 125 728 l 92 965 m 264 221 l 382 92 l 264 -36 l 144 92 "},"¿":{"ha":700,"x_min":0,"x_max":0,"o":"m 586 568 l 467 439 l 349 568 l 467 696 m 519 -306 b 92 -90 319 -306 92 -281 b 436 204 92 90 344 157 l 453 354 l 486 354 l 511 185 b 303 -60 383 140 303 36 b 411 -254 303 -212 356 -254 b 594 -69 517 -254 564 -172 l 606 -68 l 639 -306 "},"\"":{"ha":342,"x_min":0,"x_max":0,"o":"m 56 660 l 33 965 l 136 965 l 111 660 m 218 660 l 196 965 l 299 965 l 274 660 "},"'":{"ha":186,"x_min":0,"x_max":0,"o":"m 58 660 l 36 965 l 139 965 l 114 660 "},";":{"ha":338,"x_min":0,"x_max":0,"o":"m 176 617 l 294 488 l 176 360 l 57 488 m 64 -157 b 154 -12 111 -118 154 -65 b 114 60 154 24 132 40 l 60 103 l 175 221 b 288 86 221 193 288 133 b 83 -171 288 -50 114 -151 "},"/":{"ha":618,"x_min":0,"x_max":0,"o":"m 39 0 l 472 965 l 579 965 l 146 0 "},"_":{"ha":772,"x_min":0,"x_max":0,"o":"m 0 -83 l 0 0 l 772 0 l 772 -83 "},"{":{"ha":411,"x_min":0,"x_max":0,"o":"m 71 389 b 250 160 97 371 250 326 b 238 -22 250 89 238 71 b 340 -182 238 -133 263 -182 l 338 -225 b 115 -6 199 -225 115 -168 b 132 194 115 53 132 128 b 74 344 132 276 100 324 b 15 371 56 358 44 363 l 15 413 b 74 439 44 421 56 425 b 132 589 100 460 132 507 b 115 789 132 656 115 731 b 338 1008 115 951 199 1008 l 340 965 b 238 806 263 965 238 917 b 250 624 238 713 250 694 b 71 394 250 457 97 413 "},"}":{"ha":411,"x_min":0,"x_max":0,"o":"m 296 394 b 117 624 269 413 117 457 b 129 806 117 694 129 713 b 26 965 129 917 104 965 l 29 1008 b 251 789 168 1008 251 951 b 235 589 251 731 235 656 b 293 439 235 507 267 460 b 351 413 311 425 322 421 l 351 371 b 293 344 322 363 311 358 b 235 194 267 324 235 276 b 251 -6 235 128 251 53 b 29 -225 251 -168 168 -225 l 26 -182 b 129 -22 104 -182 129 -133 b 117 160 129 71 117 89 b 296 389 117 326 269 371 "},"[":{"ha":297,"x_min":0,"x_max":0,"o":"m 272 988 l 272 910 l 101 910 l 101 -144 l 272 -144 l 272 -222 l 7 -222 l 7 988 "},"]":{"ha":297,"x_min":0,"x_max":0,"o":"m 182 -144 l 182 910 l 11 910 l 11 988 l 276 988 l 276 -222 l 11 -222 l 11 -144 "},"(":{"ha":404,"x_min":0,"x_max":0,"o":"m 390 988 b 179 383 222 817 179 636 b 390 -221 179 131 222 -51 l 369 -242 b 43 383 232 -122 43 36 b 369 1008 43 731 232 875 "},")":{"ha":403,"x_min":0,"x_max":0,"o":"m 35 1008 b 360 383 171 875 360 731 b 35 -242 360 36 171 -122 l 14 -221 b 225 383 182 -51 225 131 b 14 988 225 636 182 817 "},"—":{"ha":1250,"x_min":0,"x_max":0,"o":"m 0 335 l 0 432 l 1250 432 l 1250 335 "},"–":{"ha":694,"x_min":0,"x_max":0,"o":"m 0 335 l 0 432 l 694 432 l 694 335 "},"-":{"ha":408,"x_min":0,"x_max":0,"o":"m 42 336 l 42 447 l 382 447 l 382 336 "},"­":{"ha":619,"x_min":0,"x_max":0,"o":"m 8 335 l 8 432 l 611 432 l 611 335 "},"«":{"ha":711,"x_min":0,"x_max":0,"o":"m 247 342 l 403 39 l 389 25 l 17 342 l 389 658 l 403 635 l 94 342 m 554 342 l 710 39 l 696 25 l 324 342 l 696 658 l 710 635 l 401 342 "},"»":{"ha":711,"x_min":0,"x_max":0,"o":"m 165 342 l 10 644 l 24 658 l 396 342 l 24 25 l 10 49 l 318 342 m 472 342 l 317 644 l 331 658 l 703 342 l 331 25 l 317 49 l 625 342 "},"‹":{"ha":411,"x_min":0,"x_max":0,"o":"m 247 342 l 403 39 l 389 25 l 17 342 l 389 658 l 403 644 l 94 342 "},"›":{"ha":411,"x_min":0,"x_max":0,"o":"m 164 342 l 8 644 l 22 658 l 394 342 l 22 25 l 8 39 l 317 342 "},"„":{"ha":593,"x_min":0,"x_max":0,"o":"m 46 -156 b 136 -11 93 -117 136 -64 b 96 61 136 25 114 42 l 42 104 l 157 222 b 269 88 203 194 269 135 b 65 -169 269 -49 96 -150 m 324 -156 b 414 -11 371 -117 414 -64 b 374 61 414 25 392 42 l 319 104 l 435 222 b 547 88 481 194 547 135 b 343 -169 547 -49 374 -150 "},"“":{"ha":590,"x_min":0,"x_max":0,"o":"m 265 974 b 175 829 218 935 175 882 b 215 757 175 793 197 776 l 269 714 l 154 596 b 42 731 108 624 42 683 b 246 988 42 867 215 968 m 543 974 b 453 829 496 935 453 882 b 493 757 453 793 475 776 l 547 714 l 432 596 b 319 731 386 624 319 683 b 524 988 319 867 493 968 "},"”":{"ha":590,"x_min":0,"x_max":0,"o":"m 46 610 b 136 754 93 649 136 701 b 96 826 136 790 114 807 l 42 869 l 157 988 b 269 853 203 960 269 900 b 65 596 269 717 96 615 m 324 610 b 414 754 371 649 414 701 b 374 826 414 790 392 807 l 319 869 l 435 988 b 547 853 481 960 547 900 b 343 596 547 717 374 615 "},"‘":{"ha":344,"x_min":0,"x_max":0,"o":"m 265 974 b 175 829 218 935 175 882 b 215 757 175 793 197 776 l 269 714 l 154 596 b 42 731 108 624 42 683 b 246 988 42 867 215 968 "},"’":{"ha":344,"x_min":0,"x_max":0,"o":"m 46 610 b 136 754 93 649 136 701 b 96 826 136 790 114 807 l 42 869 l 157 988 b 269 853 203 960 269 900 b 65 596 269 717 96 615 "},"‚":{"ha":315,"x_min":0,"x_max":0,"o":"m 46 -157 b 136 -12 93 -118 136 -65 b 96 60 136 24 114 40 l 42 103 l 157 221 b 269 86 203 193 269 133 b 65 -171 269 -50 96 -151 "}," ":{"ha":299,"x_min":0,"x_max":0,"o":""}," ":{"ha":299,"x_min":0,"x_max":0,"o":""}," ":{"ha":278,"x_min":0,"x_max":0,"o":""},"\r":{"ha":0,"x_min":0,"x_max":0,"o":""},"ƒ":{"ha":833,"x_min":0,"x_max":0,"o":"m 710 865 l 700 865 b 529 1039 651 964 589 1039 b 450 846 464 1039 457 963 l 439 681 l 665 681 l 665 624 l 436 618 l 403 103 b 150 -265 392 -64 326 -265 l -17 -265 l -17 -43 l -7 -43 b 164 -217 42 -142 104 -217 b 243 -24 229 -217 236 -143 l 283 615 l 160 613 l 160 681 l 288 681 l 290 719 b 543 1088 301 886 367 1088 l 710 1088 "},"¢":{"ha":622,"x_min":0,"x_max":0,"o":"m 561 575 b 414 703 531 622 482 679 l 354 238 b 401 232 369 233 385 232 b 586 357 497 232 569 308 l 601 351 b 332 68 574 244 488 85 l 313 -81 l 263 -81 l 276 68 b 35 396 114 85 35 239 b 340 760 35 538 121 731 l 354 901 l 440 901 l 422 764 l 568 764 l 568 575 m 336 715 b 194 522 228 710 194 617 b 294 263 194 382 236 301 "},"¤":{"ha":647,"x_min":0,"x_max":0,"o":"m 201 594 b 324 635 236 619 278 635 b 443 596 368 635 410 619 l 532 681 l 574 636 l 488 554 b 529 429 514 519 529 476 b 486 301 529 381 513 336 l 574 218 l 532 174 l 442 260 b 324 224 408 236 368 224 b 203 261 279 224 238 238 l 111 174 l 69 218 l 160 304 b 118 429 133 339 118 382 b 158 551 118 475 133 518 l 69 636 l 111 681 m 176 429 b 324 282 176 347 242 282 b 472 429 406 282 472 347 b 324 576 472 511 406 576 b 176 429 242 576 176 511 "},"$":{"ha":646,"x_min":0,"x_max":0,"o":"m 56 324 b 269 47 90 193 171 83 l 269 338 b 46 594 160 386 46 442 b 271 826 46 711 117 813 l 271 901 l 357 901 l 354 828 l 481 828 l 539 846 l 539 585 l 529 586 b 353 776 494 683 431 750 l 343 514 b 604 260 465 463 604 411 b 325 -10 604 76 489 -1 l 322 -81 l 269 -81 l 269 -10 b 57 33 196 -6 110 10 l 42 324 m 271 789 b 164 679 208 786 164 746 b 271 546 164 617 208 578 m 336 36 b 472 144 400 36 472 69 b 336 307 472 228 411 271 l 326 36 "},"€":{"ha":868,"x_min":0,"x_max":0,"o":"m 826 256 b 481 -14 774 131 664 -14 b 154 319 286 -14 174 118 l 11 315 l 11 382 l 151 382 l 151 383 b 160 476 151 414 154 446 l 31 472 l 31 540 l 176 540 b 578 826 228 696 361 826 l 751 826 l 751 581 l 743 581 b 504 776 696 682 629 776 b 315 542 379 776 326 675 l 538 542 l 538 488 l 314 481 b 321 385 314 447 317 414 l 518 385 l 518 331 l 333 325 b 553 128 364 207 435 128 b 810 268 699 128 771 207 "},"£":{"ha":774,"x_min":0,"x_max":0,"o":"m 11 0 l 68 61 l 72 61 b 185 389 107 64 185 81 l 185 431 l 69 428 l 69 494 l 185 494 b 488 826 192 614 276 826 l 654 826 l 654 638 l 649 638 b 433 778 608 699 536 778 b 326 665 351 778 326 726 b 374 497 326 588 358 531 l 582 497 l 582 438 l 385 433 b 182 69 382 215 296 150 l 182 67 l 582 88 l 700 206 l 708 206 l 686 0 "},"¥":{"ha":1013,"x_min":0,"x_max":0,"o":"m 771 393 l 771 324 l 596 324 l 596 254 l 771 254 l 771 185 l 596 185 l 596 140 l 713 0 l 299 0 l 415 140 l 415 185 l 233 185 l 233 253 l 415 253 l 415 324 l 233 324 l 233 392 l 372 392 l 168 679 l 42 826 l 488 826 l 369 679 l 368 679 l 532 467 l 554 435 l 736 682 l 618 826 l 971 826 l 828 696 l 608 393 "},"≈":{"ha":626,"x_min":0,"x_max":0,"o":"m 543 579 l 564 571 l 482 432 l 138 450 l 82 390 l 63 403 l 150 550 l 482 532 m 543 340 l 564 332 l 482 193 l 138 211 l 82 151 l 63 164 l 150 311 l 482 293 "},"~":{"ha":554,"x_min":0,"x_max":0,"o":"m 506 814 l 526 806 l 444 663 l 140 681 l 85 621 l 65 633 l 153 785 l 444 767 "},"÷":{"ha":619,"x_min":0,"x_max":0,"o":"m 311 732 l 426 607 l 311 481 l 194 607 m 32 335 l 32 432 l 588 432 l 588 335 m 311 286 l 426 161 l 311 35 l 194 161 "},"∅":{"ha":847,"x_min":0,"x_max":0,"o":"m 693 571 b 778 340 746 508 778 428 b 424 -14 778 144 619 -14 b 183 81 331 -14 246 22 l 83 -15 l 56 15 l 154 110 b 69 340 101 172 69 253 b 424 694 69 536 228 694 b 664 600 517 694 601 658 l 764 696 l 792 665 m 628 565 b 424 643 574 614 503 643 b 121 340 256 643 121 508 b 192 146 121 267 147 199 m 219 115 b 424 38 274 67 344 38 b 726 340 592 38 726 172 b 656 535 726 414 700 482 "},"=":{"ha":676,"x_min":0,"x_max":0,"o":"m 592 463 l 63 463 l 63 563 l 592 563 m 592 179 l 63 179 l 63 279 l 592 279 "},">":{"ha":776,"x_min":0,"x_max":0,"o":"m 64 56 l 64 156 l 485 318 l 64 544 l 64 644 l 714 406 l 714 294 "},"≥":{"ha":733,"x_min":0,"x_max":0,"o":"m 64 290 l 457 492 l 64 651 l 64 751 l 663 526 l 663 426 l 64 190 m 63 35 l 63 132 l 671 132 l 671 35 "},"∞":{"ha":772,"x_min":0,"x_max":0,"o":"m 717 413 b 550 208 717 317 665 208 b 383 311 465 208 429 258 b 210 200 350 260 308 200 b 56 383 119 200 56 283 b 256 603 56 464 106 603 b 449 485 356 603 403 553 b 590 581 482 536 522 581 b 717 413 675 581 717 486 m 461 461 b 588 301 497 383 522 301 b 686 404 653 301 686 351 b 576 513 686 454 657 513 b 461 461 529 513 490 501 m 369 342 b 204 501 332 428 308 501 b 86 385 124 501 86 461 b 215 268 86 307 149 268 b 369 342 286 268 342 299 "},"∫":{"ha":611,"x_min":0,"x_max":0,"o":"m 622 865 b 451 1039 574 964 511 1039 b 372 846 386 1039 368 963 l 403 103 b 150 -265 410 -64 326 -265 l -17 -265 l -17 -43 l -7 -43 b 164 -217 42 -142 104 -217 b 243 -24 229 -217 249 -143 l 213 719 b 465 1088 206 886 289 1088 l 632 1088 l 632 865 "},"<":{"ha":776,"x_min":0,"x_max":0,"o":"m 714 644 l 714 544 l 293 382 l 714 156 l 714 56 l 64 294 l 64 406 "},"≤":{"ha":733,"x_min":0,"x_max":0,"o":"m 669 751 l 669 651 l 276 492 l 669 290 l 669 190 l 71 426 l 71 526 m 671 35 l 63 35 l 63 132 l 671 132 "},"¬":{"ha":775,"x_min":0,"x_max":0,"o":"m 729 76 l 639 76 l 639 335 l 46 335 l 46 432 l 728 432 l 728 371 l 729 371 "},"−":{"ha":619,"x_min":0,"x_max":0,"o":"m 46 335 l 46 432 l 574 432 l 574 335 "},"×":{"ha":546,"x_min":0,"x_max":0,"o":"m 515 172 l 444 101 l 274 281 l 101 100 l 31 179 l 200 357 l 43 522 l 114 593 l 269 429 l 432 600 l 503 521 l 343 353 "},"≠":{"ha":631,"x_min":0,"x_max":0,"o":"m 592 563 l 592 463 l 422 463 l 294 279 l 592 279 l 592 179 l 225 179 l 124 35 l 63 35 l 164 179 l 63 179 l 63 279 l 233 279 l 361 463 l 63 463 l 63 563 l 431 563 l 531 706 l 592 706 l 492 563 "},"∂":{"ha":719,"x_min":0,"x_max":0,"o":"m 285 976 b 668 464 543 976 668 689 b 307 -19 668 146 511 -19 b 42 308 147 -19 42 92 b 338 638 42 472 136 638 b 511 546 364 638 432 633 b 300 929 496 821 404 929 b 115 819 239 929 174 896 l 106 819 l 106 976 m 336 26 b 515 446 453 26 515 254 b 514 503 515 465 515 485 b 357 597 481 569 399 597 b 219 283 264 597 219 471 b 336 26 219 160 253 26 "},"%":{"ha":1085,"x_min":0,"x_max":0,"o":"m 264 -46 l 199 -46 l 825 999 l 892 999 m 503 706 b 247 407 503 568 417 407 b 46 658 117 407 46 532 b 300 957 46 796 131 957 b 503 706 432 957 503 832 m 251 917 b 165 756 176 917 165 819 b 300 447 165 590 221 447 b 386 608 365 447 386 554 b 251 917 386 774 329 917 m 1039 285 b 783 -14 1039 147 953 -14 b 582 238 653 -14 582 111 b 836 536 582 375 667 536 b 1039 285 968 536 1039 411 m 788 496 b 701 335 713 496 701 399 b 836 26 701 169 757 26 b 922 188 901 26 922 133 b 788 496 922 353 865 496 "},"‰":{"ha":1571,"x_min":0,"x_max":0,"o":"m 236 -46 l 167 -46 l 821 999 l 892 999 m 494 717 b 243 426 494 582 410 426 b 46 669 115 426 46 547 b 296 960 46 804 129 960 b 494 717 425 960 494 839 m 247 921 b 164 764 174 921 164 826 b 296 465 164 604 218 465 b 379 622 360 465 379 569 b 247 921 379 782 324 921 m 1008 276 b 757 -14 1008 142 924 -14 b 560 229 629 -14 560 107 b 808 519 560 364 643 519 b 1008 276 939 519 1008 399 m 1525 276 b 1275 -14 1525 142 1442 -14 b 1078 229 1147 -14 1078 107 b 1326 519 1078 364 1161 519 b 1525 276 1456 519 1525 399 m 761 481 b 676 324 688 481 676 386 b 808 25 676 164 732 25 b 893 182 872 25 893 129 b 761 481 893 342 838 481 m 1279 481 b 1194 324 1206 481 1194 386 b 1326 25 1194 164 1249 25 b 1411 182 1390 25 1411 129 b 1279 481 1411 342 1356 481 "},"+":{"ha":729,"x_min":0,"x_max":0,"o":"m 650 431 l 650 331 l 401 331 l 401 76 l 292 35 l 292 331 l 56 331 l 56 431 l 292 431 l 292 671 l 401 713 l 401 431 "},"±":{"ha":719,"x_min":0,"x_max":0,"o":"m 664 35 l 56 35 l 56 132 l 299 132 l 299 331 l 63 331 l 63 431 l 299 431 l 299 671 l 408 713 l 408 431 l 657 431 l 657 331 l 408 331 l 408 132 l 664 132 "},"∏":{"ha":1019,"x_min":0,"x_max":0,"o":"m 964 -235 l 585 -235 l 688 -87 l 688 911 l 332 911 l 332 -87 l 435 -235 l 56 -235 l 158 -87 l 158 822 l 56 969 l 964 969 l 861 822 l 861 -87 "},"√":{"ha":732,"x_min":0,"x_max":0,"o":"m 0 593 l 236 725 l 461 146 l 649 1172 l 732 1172 l 429 -137 l 410 -137 l 140 497 "},"∑":{"ha":894,"x_min":0,"x_max":0,"o":"m 60 -226 l 418 300 l 56 969 l 824 969 l 824 678 l 807 678 l 654 919 l 319 919 l 588 424 l 246 -87 l 717 -87 l 825 133 l 846 133 l 825 -226 "},"◊":{"ha":872,"x_min":0,"x_max":0,"o":"m 436 15 l 56 417 l 436 818 l 817 417 m 436 113 l 719 417 l 436 719 l 154 417 "},"&":{"ha":1099,"x_min":0,"x_max":0,"o":"m 725 606 l 1067 606 l 903 508 l 767 254 l 878 104 l 1007 0 l 740 0 l 651 128 b 329 -21 571 53 471 -21 b 61 182 144 -21 61 61 b 404 469 61 325 224 431 l 404 532 l 401 532 b 156 729 236 532 156 628 b 465 965 156 838 250 965 b 714 774 631 965 714 875 b 494 542 714 682 644 574 l 501 486 l 597 486 l 744 286 l 858 511 m 406 929 b 318 806 324 929 318 856 b 460 567 318 676 381 567 b 550 699 531 567 550 657 b 406 929 550 828 485 929 m 431 447 b 253 244 331 422 253 338 b 454 71 253 135 313 71 b 631 158 517 71 590 107 "},"^":{"ha":647,"x_min":0,"x_max":0,"o":"m 640 392 l 540 392 l 282 744 l 107 392 l 7 392 l 268 964 l 267 965 l 381 965 l 379 964 "},"@":{"ha":1140,"x_min":0,"x_max":0,"o":"m 1058 371 b 1078 199 1074 299 1078 250 b 560 -243 1078 -68 817 -243 b 63 226 283 -243 63 -68 b 526 690 63 464 193 690 l 904 690 l 865 578 l 865 111 l 906 0 l 672 0 l 672 110 b 414 -15 610 61 518 -17 b 256 135 325 -14 256 49 b 672 439 256 292 414 349 b 492 636 672 533 669 636 b 117 231 224 636 117 433 b 560 -197 117 -44 308 -197 b 1024 167 819 -197 1024 -26 b 976 314 1024 219 1008 269 m 672 403 b 431 183 497 326 431 250 b 553 90 431 119 486 90 b 672 147 601 90 632 111 "},"|":{"ha":449,"x_min":0,"x_max":0,"o":"m 138 -208 l 138 972 l 261 972 l 261 -208 "},"¦":{"ha":399,"x_min":0,"x_max":0,"o":"m 261 972 l 261 514 l 138 514 l 138 972 m 138 -208 l 138 250 l 261 250 l 261 -208 "},"©":{"ha":1014,"x_min":0,"x_max":0,"o":"m 507 32 b 64 475 263 32 64 231 b 507 918 64 719 263 918 b 950 475 751 918 950 719 b 507 32 950 231 751 32 m 507 92 b 890 475 718 92 890 264 b 507 858 890 686 718 858 b 124 475 296 858 124 686 b 507 92 124 264 296 92 m 681 586 b 492 721 651 661 585 721 b 363 542 401 721 363 636 b 549 289 363 407 424 289 b 725 374 657 289 711 346 l 739 365 b 494 183 713 290 632 183 b 233 464 333 183 233 304 b 553 768 233 617 342 768 l 692 768 l 692 586 "},"†":{"ha":542,"x_min":0,"x_max":0,"o":"m 14 681 l 225 681 l 188 972 l 354 972 l 317 681 l 408 681 l 528 783 l 528 625 l 354 625 l 354 503 l 281 -111 l 261 -111 l 188 503 l 188 625 l 133 625 l 14 522 "},"‡":{"ha":542,"x_min":0,"x_max":0,"o":"m 528 353 l 528 194 l 317 194 l 354 -97 l 188 -97 l 225 194 l 133 194 l 14 92 l 14 250 l 225 250 l 225 625 l 133 625 l 14 522 l 14 681 l 225 681 l 188 972 l 354 972 l 317 681 l 408 681 l 528 783 l 528 625 l 317 625 l 317 250 l 408 250 "},"°":{"ha":356,"x_min":0,"x_max":0,"o":"m 35 976 b 178 1119 35 1056 99 1119 b 321 976 257 1119 321 1056 b 178 833 321 897 257 833 b 35 976 99 833 35 897 m 97 976 b 178 896 97 933 135 896 b 258 976 221 896 258 933 b 178 1057 258 1019 221 1057 b 97 976 135 1057 97 1019 "},"♥":{"ha":1161,"x_min":0,"x_max":0,"o":"m 836 743 b 1092 482 922 743 1092 694 b 581 -110 1092 244 740 135 b 69 482 421 135 69 244 b 325 743 69 694 239 743 b 581 569 431 743 518 661 b 836 743 643 661 731 743 m 581 317 b 631 389 606 317 631 342 b 581 522 631 426 585 506 b 532 389 575 506 532 426 b 581 317 532 342 556 317 "},"♡":{"ha":1163,"x_min":0,"x_max":0,"o":"m 561 -82 b 69 482 394 143 69 254 b 325 743 69 704 239 743 b 564 604 421 743 503 675 b 597 604 574 593 588 593 b 836 743 658 675 740 743 b 1092 482 922 743 1092 704 b 600 -82 1092 254 767 143 l 581 -106 m 564 546 b 321 706 496 635 418 706 b 111 489 253 706 111 671 b 571 -35 111 275 396 176 b 590 -35 578 -42 583 -42 b 1050 489 765 176 1050 275 b 842 706 1050 671 908 706 b 597 546 743 706 665 635 l 581 524 m 581 315 b 544 371 560 315 544 338 b 581 475 544 407 576 461 b 618 371 585 461 618 407 b 581 315 618 338 601 315 "},"☇":{"ha":589,"x_min":0,"x_max":0,"o":"m 122 -50 l 265 299 l 56 299 l 468 769 l 474 769 l 331 421 l 540 421 l 128 -50 "},"¶":{"ha":810,"x_min":0,"x_max":0,"o":"m 372 439 b 296 424 350 429 319 424 b 31 683 157 424 31 526 b 367 951 31 881 169 953 l 735 951 l 640 844 l 639 844 l 639 0 l 547 0 l 547 893 l 458 893 l 458 36 b 347 -139 458 -65 381 -132 l 343 -136 b 367 -10 367 -87 367 -40 l 367 379 "},"☝":{"ha":833,"x_min":0,"x_max":0,"o":"m 217 214 b 221 251 218 228 218 238 b 239 310 224 265 232 315 l 275 306 b 226 447 261 354 253 396 b 176 618 200 499 181 590 b 153 811 171 656 153 781 b 210 936 153 853 169 936 b 253 825 258 936 258 864 b 299 849 261 838 283 849 b 365 788 326 849 357 829 b 393 803 372 797 385 803 b 426 789 410 803 426 789 b 431 817 429 790 431 801 b 433 899 432 840 432 875 b 483 999 436 936 454 999 b 574 815 532 999 568 911 b 572 657 579 719 578 701 l 561 571 b 633 456 579 557 633 493 b 601 339 633 418 618 364 b 588 294 585 314 586 314 b 588 253 589 275 588 254 b 603 246 588 251 596 251 b 611 221 610 240 613 231 b 610 204 610 211 610 204 l 633 200 b 657 193 642 199 656 199 b 658 149 661 181 658 164 b 635 100 658 136 660 94 b 231 114 610 106 256 117 b 163 146 189 110 165 119 b 179 214 161 163 161 214 m 489 964 b 461 878 471 964 465 908 b 456 804 458 854 456 831 b 454 736 456 778 454 753 b 454 674 454 719 457 693 b 449 618 451 654 449 618 b 533 600 472 617 515 629 b 547 757 551 675 546 686 b 536 868 549 828 544 826 b 489 964 528 910 508 964 m 453 583 b 443 496 463 563 450 511 b 499 465 458 485 496 469 b 488 442 501 461 493 443 b 431 465 482 440 435 460 b 414 450 426 456 414 451 b 444 357 414 438 407 374 b 428 333 438 346 428 333 b 381 446 400 344 371 404 b 346 503 365 453 346 483 b 324 493 336 488 336 492 b 278 517 311 494 286 507 b 257 579 269 526 258 569 b 254 625 256 589 254 625 b 221 685 243 628 225 658 b 219 774 217 711 219 756 b 210 904 219 821 224 904 b 181 833 196 904 179 860 b 190 735 182 807 188 751 b 215 592 193 718 210 613 b 244 478 221 571 224 513 b 311 300 265 443 311 336 b 553 257 346 292 553 257 b 567 342 551 289 561 326 b 606 446 572 357 606 410 b 588 496 606 482 599 483 l 517 572 b 497 589 511 578 507 590 m 300 817 b 247 772 271 817 247 797 b 250 697 247 750 249 706 b 258 669 251 689 258 669 b 286 656 263 678 285 679 b 290 571 288 632 293 583 b 315 525 288 558 304 525 b 338 603 326 525 342 551 b 343 726 333 654 343 689 b 300 817 343 764 340 818 m 371 742 b 368 628 368 725 368 638 l 368 579 b 397 478 372 571 368 478 b 424 572 426 478 421 544 b 429 672 426 600 429 656 l 429 707 b 424 736 429 715 429 717 b 396 774 419 753 417 774 b 375 753 385 774 386 768 m 257 272 b 253 214 256 253 251 232 b 546 193 293 210 535 193 b 571 203 557 193 565 200 b 579 222 576 206 586 224 b 257 272 572 221 275 272 "},"®":{"ha":618,"x_min":0,"x_max":0,"o":"m 308 575 b 28 856 154 575 28 700 b 308 1136 28 1011 154 1136 b 590 856 465 1136 590 1011 b 308 575 590 700 465 575 m 308 613 b 551 856 443 613 551 722 b 308 1099 551 990 443 1099 b 65 856 175 1099 65 990 b 308 613 65 722 175 613 m 289 844 l 267 842 l 267 747 l 303 697 l 169 697 l 204 747 l 204 971 l 169 1022 l 283 1022 b 426 938 318 1022 426 1015 b 351 857 426 899 392 871 l 414 743 l 464 697 l 368 697 m 267 858 b 356 931 313 860 356 885 b 267 1007 356 988 318 1007 "},"§":{"ha":833,"x_min":0,"x_max":0,"o":"m 372 436 b 296 421 350 426 319 421 b 31 681 157 421 31 524 b 367 951 31 878 169 951 l 368 950 l 422 950 l 422 951 l 614 951 l 614 949 l 735 949 l 640 842 l 639 842 l 639 0 l 547 0 l 547 890 l 458 890 l 458 0 l 367 0 l 367 376 "},"☠":{"ha":840,"x_min":0,"x_max":0,"o":"m 226 158 b 126 225 226 204 160 158 b 71 381 93 269 82 325 b 404 825 50 633 185 825 b 771 381 678 825 771 639 b 615 125 771 182 615 250 l 615 36 l 560 25 l 560 136 b 604 228 560 196 563 201 b 693 314 649 256 671 281 l 682 325 b 619 375 660 340 639 357 b 560 358 603 365 583 358 b 471 481 501 358 481 408 b 496 501 471 489 478 499 b 315 758 428 583 369 672 l 308 769 b 271 747 300 769 282 756 b 238 225 138 651 49 325 b 282 136 290 197 282 203 l 282 69 l 315 69 l 315 -31 l 282 -64 l 260 -31 l 265 22 l 226 14 m 382 781 b 574 506 439 688 501 590 b 635 508 590 507 610 508 b 671 469 665 508 671 489 b 658 418 671 456 667 436 b 704 381 672 406 689 393 b 426 781 744 544 629 781 m 382 469 b 249 369 357 403 319 369 b 171 481 196 369 171 417 b 193 503 171 496 181 503 b 360 492 249 503 304 492 b 382 469 382 492 382 481 m 424 410 b 449 381 435 401 446 393 b 471 236 449 314 471 267 b 408 210 451 219 435 210 b 367 243 385 210 367 224 b 400 381 367 269 383 292 b 424 410 407 393 418 404 m 538 -31 l 515 -53 l 482 -31 l 482 58 l 538 58 m 460 -42 l 438 -64 l 415 -42 l 415 47 l 460 47 m 382 -75 l 360 -108 l 338 -75 l 338 36 l 393 36 "},"™":{"ha":1311,"x_min":0,"x_max":0,"o":"m 63 1117 l 529 1117 l 529 946 l 524 946 l 424 1089 l 347 1089 l 347 674 l 404 592 l 189 592 l 244 674 l 244 1088 l 169 1088 l 69 946 l 63 946 m 747 592 l 590 592 l 649 667 l 649 1036 l 583 1117 l 736 1117 l 919 735 l 1086 1117 l 1247 1117 l 1190 1054 l 1190 674 l 1249 592 l 1026 592 l 1090 674 l 1090 1040 l 890 583 l 883 583 l 686 978 l 686 667 "},"´":{"ha":296,"x_min":0,"x_max":0,"o":"m 54 767 l 79 946 l 254 946 l 75 767 "},"ˇ":{"ha":300,"x_min":0,"x_max":0,"o":"m 265 946 l 288 946 l 207 767 l 92 767 l 13 946 l 32 946 l 150 844 "},"¸":{"ha":256,"x_min":0,"x_max":0,"o":"m 122 -22 b 242 -108 163 -37 242 -62 b 111 -212 242 -176 181 -212 b -3 -169 64 -212 33 -200 l 13 -140 b 114 -179 40 -164 74 -179 b 179 -147 151 -179 179 -167 b 38 -75 179 -110 89 -86 l 107 25 l 147 25 "},"ˆ":{"ha":296,"x_min":0,"x_max":0,"o":"m 92 946 l 207 946 l 288 767 l 265 767 l 150 868 l 32 767 l 13 767 "},"¨":{"ha":569,"x_min":0,"x_max":0,"o":"m 143 974 l 236 868 l 143 761 l 49 868 m 428 974 l 521 868 l 428 761 l 333 868 "},"˙":{"ha":243,"x_min":0,"x_max":0,"o":"m 122 979 l 219 868 l 122 756 l 24 868 "},"`":{"ha":256,"x_min":0,"x_max":0,"o":"m 207 767 l 28 946 l 203 946 l 228 767 "},"¯":{"ha":456,"x_min":0,"x_max":0,"o":"m 67 742 l 67 826 l 389 826 l 389 742 "},"˚":{"ha":286,"x_min":0,"x_max":0,"o":"m 7 882 b 143 1018 7 957 68 1018 b 279 882 218 1018 279 957 b 143 746 279 807 218 746 b 7 882 68 746 7 807 m 54 882 b 143 793 54 833 94 793 b 232 882 192 793 232 833 b 143 971 232 931 192 971 b 54 882 94 971 54 931 "},"˜":{"ha":501,"x_min":0,"x_max":0,"o":"m 157 919 b 350 901 221 914 286 901 b 411 949 371 901 390 922 l 432 940 l 350 797 b 144 815 282 803 213 815 b 89 756 126 815 107 786 l 69 768 "}}}
